<?xml version="1.0" encoding="utf-8"?>
<svg xmlns="http://www.w3.org/2000/svg" xmlns:xlink="http://www.w3.org/1999/xlink" width="600" height="400" viewBox="0 0 2400 1600">
<defs>
  <clipPath id="clip970">
    <rect x="0" y="0" width="2400" height="1600"/>
  </clipPath>
</defs>
<path clip-path="url(#clip970)" d="M0 1600 L2400 1600 L2400 0 L0 0  Z" fill="#ffffff" fill-rule="evenodd" fill-opacity="1"/>
<defs>
  <clipPath id="clip971">
    <rect x="219" y="47" width="2134" height="1377"/>
  </clipPath>
</defs>
<path clip-path="url(#clip970)" d="M219.38 1423.18 L2352.76 1423.18 L2352.76 47.2441 L219.38 47.2441  Z" fill="#ffffff" fill-rule="evenodd" fill-opacity="1"/>
<polyline clip-path="url(#clip971)" style="stroke:#000000; stroke-linecap:round; stroke-linejoin:round; stroke-width:2; stroke-opacity:0.1; fill:none" points="279.759,1423.18 279.759,47.2441 "/>
<polyline clip-path="url(#clip971)" style="stroke:#000000; stroke-linecap:round; stroke-linejoin:round; stroke-width:2; stroke-opacity:0.1; fill:none" points="787.996,1423.18 787.996,47.2441 "/>
<polyline clip-path="url(#clip971)" style="stroke:#000000; stroke-linecap:round; stroke-linejoin:round; stroke-width:2; stroke-opacity:0.1; fill:none" points="1296.23,1423.18 1296.23,47.2441 "/>
<polyline clip-path="url(#clip971)" style="stroke:#000000; stroke-linecap:round; stroke-linejoin:round; stroke-width:2; stroke-opacity:0.1; fill:none" points="1804.47,1423.18 1804.47,47.2441 "/>
<polyline clip-path="url(#clip971)" style="stroke:#000000; stroke-linecap:round; stroke-linejoin:round; stroke-width:2; stroke-opacity:0.1; fill:none" points="2312.71,1423.18 2312.71,47.2441 "/>
<polyline clip-path="url(#clip971)" style="stroke:#000000; stroke-linecap:round; stroke-linejoin:round; stroke-width:2; stroke-opacity:0.1; fill:none" points="219.38,1384.24 2352.76,1384.24 "/>
<polyline clip-path="url(#clip971)" style="stroke:#000000; stroke-linecap:round; stroke-linejoin:round; stroke-width:2; stroke-opacity:0.1; fill:none" points="219.38,1008.29 2352.76,1008.29 "/>
<polyline clip-path="url(#clip971)" style="stroke:#000000; stroke-linecap:round; stroke-linejoin:round; stroke-width:2; stroke-opacity:0.1; fill:none" points="219.38,632.334 2352.76,632.334 "/>
<polyline clip-path="url(#clip971)" style="stroke:#000000; stroke-linecap:round; stroke-linejoin:round; stroke-width:2; stroke-opacity:0.1; fill:none" points="219.38,256.382 2352.76,256.382 "/>
<polyline clip-path="url(#clip970)" style="stroke:#000000; stroke-linecap:round; stroke-linejoin:round; stroke-width:4; stroke-opacity:1; fill:none" points="219.38,1423.18 2352.76,1423.18 "/>
<polyline clip-path="url(#clip970)" style="stroke:#000000; stroke-linecap:round; stroke-linejoin:round; stroke-width:4; stroke-opacity:1; fill:none" points="279.759,1423.18 279.759,1404.28 "/>
<polyline clip-path="url(#clip970)" style="stroke:#000000; stroke-linecap:round; stroke-linejoin:round; stroke-width:4; stroke-opacity:1; fill:none" points="787.996,1423.18 787.996,1404.28 "/>
<polyline clip-path="url(#clip970)" style="stroke:#000000; stroke-linecap:round; stroke-linejoin:round; stroke-width:4; stroke-opacity:1; fill:none" points="1296.23,1423.18 1296.23,1404.28 "/>
<polyline clip-path="url(#clip970)" style="stroke:#000000; stroke-linecap:round; stroke-linejoin:round; stroke-width:4; stroke-opacity:1; fill:none" points="1804.47,1423.18 1804.47,1404.28 "/>
<polyline clip-path="url(#clip970)" style="stroke:#000000; stroke-linecap:round; stroke-linejoin:round; stroke-width:4; stroke-opacity:1; fill:none" points="2312.71,1423.18 2312.71,1404.28 "/>
<path clip-path="url(#clip970)" d="M242.062 1454.1 Q238.451 1454.1 236.622 1457.66 Q234.817 1461.2 234.817 1468.33 Q234.817 1475.44 236.622 1479.01 Q238.451 1482.55 242.062 1482.55 Q245.696 1482.55 247.502 1479.01 Q249.331 1475.44 249.331 1468.33 Q249.331 1461.2 247.502 1457.66 Q245.696 1454.1 242.062 1454.1 M242.062 1450.39 Q247.872 1450.39 250.928 1455 Q254.007 1459.58 254.007 1468.33 Q254.007 1477.06 250.928 1481.67 Q247.872 1486.25 242.062 1486.25 Q236.252 1486.25 233.173 1481.67 Q230.118 1477.06 230.118 1468.33 Q230.118 1459.58 233.173 1455 Q236.252 1450.39 242.062 1450.39 Z" fill="#000000" fill-rule="nonzero" fill-opacity="1" /><path clip-path="url(#clip970)" d="M262.224 1479.7 L267.108 1479.7 L267.108 1485.58 L262.224 1485.58 L262.224 1479.7 Z" fill="#000000" fill-rule="nonzero" fill-opacity="1" /><path clip-path="url(#clip970)" d="M287.293 1454.1 Q283.682 1454.1 281.854 1457.66 Q280.048 1461.2 280.048 1468.33 Q280.048 1475.44 281.854 1479.01 Q283.682 1482.55 287.293 1482.55 Q290.928 1482.55 292.733 1479.01 Q294.562 1475.44 294.562 1468.33 Q294.562 1461.2 292.733 1457.66 Q290.928 1454.1 287.293 1454.1 M287.293 1450.39 Q293.104 1450.39 296.159 1455 Q299.238 1459.58 299.238 1468.33 Q299.238 1477.06 296.159 1481.67 Q293.104 1486.25 287.293 1486.25 Q281.483 1486.25 278.405 1481.67 Q275.349 1477.06 275.349 1468.33 Q275.349 1459.58 278.405 1455 Q281.483 1450.39 287.293 1450.39 Z" fill="#000000" fill-rule="nonzero" fill-opacity="1" /><path clip-path="url(#clip970)" d="M317.455 1454.1 Q313.844 1454.1 312.015 1457.66 Q310.21 1461.2 310.21 1468.33 Q310.21 1475.44 312.015 1479.01 Q313.844 1482.55 317.455 1482.55 Q321.09 1482.55 322.895 1479.01 Q324.724 1475.44 324.724 1468.33 Q324.724 1461.2 322.895 1457.66 Q321.09 1454.1 317.455 1454.1 M317.455 1450.39 Q323.265 1450.39 326.321 1455 Q329.4 1459.58 329.4 1468.33 Q329.4 1477.06 326.321 1481.67 Q323.265 1486.25 317.455 1486.25 Q311.645 1486.25 308.566 1481.67 Q305.511 1477.06 305.511 1468.33 Q305.511 1459.58 308.566 1455 Q311.645 1450.39 317.455 1450.39 Z" fill="#000000" fill-rule="nonzero" fill-opacity="1" /><path clip-path="url(#clip970)" d="M750.797 1454.1 Q747.186 1454.1 745.357 1457.66 Q743.552 1461.2 743.552 1468.33 Q743.552 1475.44 745.357 1479.01 Q747.186 1482.55 750.797 1482.55 Q754.431 1482.55 756.237 1479.01 Q758.065 1475.44 758.065 1468.33 Q758.065 1461.2 756.237 1457.66 Q754.431 1454.1 750.797 1454.1 M750.797 1450.39 Q756.607 1450.39 759.663 1455 Q762.741 1459.58 762.741 1468.33 Q762.741 1477.06 759.663 1481.67 Q756.607 1486.25 750.797 1486.25 Q744.987 1486.25 741.908 1481.67 Q738.852 1477.06 738.852 1468.33 Q738.852 1459.58 741.908 1455 Q744.987 1450.39 750.797 1450.39 Z" fill="#000000" fill-rule="nonzero" fill-opacity="1" /><path clip-path="url(#clip970)" d="M770.959 1479.7 L775.843 1479.7 L775.843 1485.58 L770.959 1485.58 L770.959 1479.7 Z" fill="#000000" fill-rule="nonzero" fill-opacity="1" /><path clip-path="url(#clip970)" d="M790.056 1481.64 L806.375 1481.64 L806.375 1485.58 L784.431 1485.58 L784.431 1481.64 Q787.093 1478.89 791.676 1474.26 Q796.283 1469.61 797.463 1468.27 Q799.709 1465.74 800.588 1464.01 Q801.491 1462.25 801.491 1460.56 Q801.491 1457.8 799.547 1456.07 Q797.625 1454.33 794.523 1454.33 Q792.324 1454.33 789.871 1455.09 Q787.44 1455.86 784.662 1457.41 L784.662 1452.69 Q787.486 1451.55 789.94 1450.97 Q792.394 1450.39 794.431 1450.39 Q799.801 1450.39 802.996 1453.08 Q806.19 1455.77 806.19 1460.26 Q806.19 1462.39 805.38 1464.31 Q804.593 1466.2 802.486 1468.8 Q801.908 1469.47 798.806 1472.69 Q795.704 1475.88 790.056 1481.64 Z" fill="#000000" fill-rule="nonzero" fill-opacity="1" /><path clip-path="url(#clip970)" d="M816.236 1451.02 L834.593 1451.02 L834.593 1454.96 L820.519 1454.96 L820.519 1463.43 Q821.537 1463.08 822.556 1462.92 Q823.574 1462.73 824.593 1462.73 Q830.38 1462.73 833.759 1465.9 Q837.139 1469.08 837.139 1474.49 Q837.139 1480.07 833.667 1483.17 Q830.195 1486.25 823.875 1486.25 Q821.699 1486.25 819.431 1485.88 Q817.185 1485.51 814.778 1484.77 L814.778 1480.07 Q816.861 1481.2 819.084 1481.76 Q821.306 1482.32 823.783 1482.32 Q827.787 1482.32 830.125 1480.21 Q832.463 1478.1 832.463 1474.49 Q832.463 1470.88 830.125 1468.77 Q827.787 1466.67 823.783 1466.67 Q821.908 1466.67 820.033 1467.08 Q818.181 1467.5 816.236 1468.38 L816.236 1451.02 Z" fill="#000000" fill-rule="nonzero" fill-opacity="1" /><path clip-path="url(#clip970)" d="M1258.54 1454.1 Q1254.93 1454.1 1253.1 1457.66 Q1251.29 1461.2 1251.29 1468.33 Q1251.29 1475.44 1253.1 1479.01 Q1254.93 1482.55 1258.54 1482.55 Q1262.17 1482.55 1263.98 1479.01 Q1265.8 1475.44 1265.8 1468.33 Q1265.8 1461.2 1263.98 1457.66 Q1262.17 1454.1 1258.54 1454.1 M1258.54 1450.39 Q1264.35 1450.39 1267.4 1455 Q1270.48 1459.58 1270.48 1468.33 Q1270.48 1477.06 1267.4 1481.67 Q1264.35 1486.25 1258.54 1486.25 Q1252.73 1486.25 1249.65 1481.67 Q1246.59 1477.06 1246.59 1468.33 Q1246.59 1459.58 1249.65 1455 Q1252.73 1450.39 1258.54 1450.39 Z" fill="#000000" fill-rule="nonzero" fill-opacity="1" /><path clip-path="url(#clip970)" d="M1278.7 1479.7 L1283.58 1479.7 L1283.58 1485.58 L1278.7 1485.58 L1278.7 1479.7 Z" fill="#000000" fill-rule="nonzero" fill-opacity="1" /><path clip-path="url(#clip970)" d="M1293.81 1451.02 L1312.17 1451.02 L1312.17 1454.96 L1298.1 1454.96 L1298.1 1463.43 Q1299.11 1463.08 1300.13 1462.92 Q1301.15 1462.73 1302.17 1462.73 Q1307.96 1462.73 1311.34 1465.9 Q1314.72 1469.08 1314.72 1474.49 Q1314.72 1480.07 1311.24 1483.17 Q1307.77 1486.25 1301.45 1486.25 Q1299.28 1486.25 1297.01 1485.88 Q1294.76 1485.51 1292.36 1484.77 L1292.36 1480.07 Q1294.44 1481.2 1296.66 1481.76 Q1298.88 1482.32 1301.36 1482.32 Q1305.36 1482.32 1307.7 1480.21 Q1310.04 1478.1 1310.04 1474.49 Q1310.04 1470.88 1307.7 1468.77 Q1305.36 1466.67 1301.36 1466.67 Q1299.49 1466.67 1297.61 1467.08 Q1295.76 1467.5 1293.81 1468.38 L1293.81 1451.02 Z" fill="#000000" fill-rule="nonzero" fill-opacity="1" /><path clip-path="url(#clip970)" d="M1333.93 1454.1 Q1330.32 1454.1 1328.49 1457.66 Q1326.68 1461.2 1326.68 1468.33 Q1326.68 1475.44 1328.49 1479.01 Q1330.32 1482.55 1333.93 1482.55 Q1337.56 1482.55 1339.37 1479.01 Q1341.2 1475.44 1341.2 1468.33 Q1341.2 1461.2 1339.37 1457.66 Q1337.56 1454.1 1333.93 1454.1 M1333.93 1450.39 Q1339.74 1450.39 1342.8 1455 Q1345.87 1459.58 1345.87 1468.33 Q1345.87 1477.06 1342.8 1481.67 Q1339.74 1486.25 1333.93 1486.25 Q1328.12 1486.25 1325.04 1481.67 Q1321.98 1477.06 1321.98 1468.33 Q1321.98 1459.58 1325.04 1455 Q1328.12 1450.39 1333.93 1450.39 Z" fill="#000000" fill-rule="nonzero" fill-opacity="1" /><path clip-path="url(#clip970)" d="M1767.27 1454.1 Q1763.66 1454.1 1761.83 1457.66 Q1760.03 1461.2 1760.03 1468.33 Q1760.03 1475.44 1761.83 1479.01 Q1763.66 1482.55 1767.27 1482.55 Q1770.91 1482.55 1772.71 1479.01 Q1774.54 1475.44 1774.54 1468.33 Q1774.54 1461.2 1772.71 1457.66 Q1770.91 1454.1 1767.27 1454.1 M1767.27 1450.39 Q1773.08 1450.39 1776.14 1455 Q1779.22 1459.58 1779.22 1468.33 Q1779.22 1477.06 1776.14 1481.67 Q1773.08 1486.25 1767.27 1486.25 Q1761.46 1486.25 1758.38 1481.67 Q1755.33 1477.06 1755.33 1468.33 Q1755.33 1459.58 1758.38 1455 Q1761.46 1450.39 1767.27 1450.39 Z" fill="#000000" fill-rule="nonzero" fill-opacity="1" /><path clip-path="url(#clip970)" d="M1787.43 1479.7 L1792.32 1479.7 L1792.32 1485.58 L1787.43 1485.58 L1787.43 1479.7 Z" fill="#000000" fill-rule="nonzero" fill-opacity="1" /><path clip-path="url(#clip970)" d="M1801.32 1451.02 L1823.54 1451.02 L1823.54 1453.01 L1811 1485.58 L1806.11 1485.58 L1817.92 1454.96 L1801.32 1454.96 L1801.32 1451.02 Z" fill="#000000" fill-rule="nonzero" fill-opacity="1" /><path clip-path="url(#clip970)" d="M1832.71 1451.02 L1851.07 1451.02 L1851.07 1454.96 L1836.99 1454.96 L1836.99 1463.43 Q1838.01 1463.08 1839.03 1462.92 Q1840.05 1462.73 1841.07 1462.73 Q1846.85 1462.73 1850.23 1465.9 Q1853.61 1469.08 1853.61 1474.49 Q1853.61 1480.07 1850.14 1483.17 Q1846.67 1486.25 1840.35 1486.25 Q1838.17 1486.25 1835.9 1485.88 Q1833.66 1485.51 1831.25 1484.77 L1831.25 1480.07 Q1833.34 1481.2 1835.56 1481.76 Q1837.78 1482.32 1840.26 1482.32 Q1844.26 1482.32 1846.6 1480.21 Q1848.94 1478.1 1848.94 1474.49 Q1848.94 1470.88 1846.6 1468.77 Q1844.26 1466.67 1840.26 1466.67 Q1838.38 1466.67 1836.51 1467.08 Q1834.65 1467.5 1832.71 1468.38 L1832.71 1451.02 Z" fill="#000000" fill-rule="nonzero" fill-opacity="1" /><path clip-path="url(#clip970)" d="M2264.78 1481.64 L2272.42 1481.64 L2272.42 1455.28 L2264.11 1456.95 L2264.11 1452.69 L2272.37 1451.02 L2277.05 1451.02 L2277.05 1481.64 L2284.69 1481.64 L2284.69 1485.58 L2264.78 1485.58 L2264.78 1481.64 Z" fill="#000000" fill-rule="nonzero" fill-opacity="1" /><path clip-path="url(#clip970)" d="M2294.13 1479.7 L2299.01 1479.7 L2299.01 1485.58 L2294.13 1485.58 L2294.13 1479.7 Z" fill="#000000" fill-rule="nonzero" fill-opacity="1" /><path clip-path="url(#clip970)" d="M2319.2 1454.1 Q2315.59 1454.1 2313.76 1457.66 Q2311.95 1461.2 2311.95 1468.33 Q2311.95 1475.44 2313.76 1479.01 Q2315.59 1482.55 2319.2 1482.55 Q2322.83 1482.55 2324.64 1479.01 Q2326.47 1475.44 2326.47 1468.33 Q2326.47 1461.2 2324.64 1457.66 Q2322.83 1454.1 2319.2 1454.1 M2319.2 1450.39 Q2325.01 1450.39 2328.07 1455 Q2331.14 1459.58 2331.14 1468.33 Q2331.14 1477.06 2328.07 1481.67 Q2325.01 1486.25 2319.2 1486.25 Q2313.39 1486.25 2310.31 1481.67 Q2307.26 1477.06 2307.26 1468.33 Q2307.26 1459.58 2310.31 1455 Q2313.39 1450.39 2319.2 1450.39 Z" fill="#000000" fill-rule="nonzero" fill-opacity="1" /><path clip-path="url(#clip970)" d="M2349.36 1454.1 Q2345.75 1454.1 2343.92 1457.66 Q2342.12 1461.2 2342.12 1468.33 Q2342.12 1475.44 2343.92 1479.01 Q2345.75 1482.55 2349.36 1482.55 Q2353 1482.55 2354.8 1479.01 Q2356.63 1475.44 2356.63 1468.33 Q2356.63 1461.2 2354.8 1457.66 Q2353 1454.1 2349.36 1454.1 M2349.36 1450.39 Q2355.17 1450.39 2358.23 1455 Q2361.31 1459.58 2361.31 1468.33 Q2361.31 1477.06 2358.23 1481.67 Q2355.17 1486.25 2349.36 1486.25 Q2343.55 1486.25 2340.47 1481.67 Q2337.42 1477.06 2337.42 1468.33 Q2337.42 1459.58 2340.47 1455 Q2343.55 1450.39 2349.36 1450.39 Z" fill="#000000" fill-rule="nonzero" fill-opacity="1" /><path clip-path="url(#clip970)" d="M797.755 1538.76 Q799.696 1535.52 804.502 1532.65 Q806.38 1531.54 812.173 1531.54 Q818.666 1531.54 822.708 1536.69 Q826.782 1541.85 826.782 1550.25 Q826.782 1558.65 822.708 1563.81 Q818.666 1568.97 812.173 1568.97 Q808.258 1568.97 805.425 1567.44 Q802.624 1565.88 800.778 1562.7 L800.778 1581.6 L794.89 1581.6 L794.89 1550.57 Q794.89 1543.22 797.755 1538.76 M820.703 1550.25 Q820.703 1543.79 818.029 1540.13 Q815.388 1536.44 810.741 1536.44 Q806.094 1536.44 803.42 1540.13 Q800.778 1543.79 800.778 1550.25 Q800.778 1556.71 803.42 1560.4 Q806.094 1564.07 810.741 1564.07 Q815.388 1564.07 818.029 1560.4 Q820.703 1556.71 820.703 1550.25 Z" fill="#000000" fill-rule="nonzero" fill-opacity="1" /><path clip-path="url(#clip970)" d="M871.279 1518.58 Q867.014 1525.9 864.945 1533.06 Q862.876 1540.23 862.876 1547.58 Q862.876 1554.93 864.945 1562.16 Q867.045 1569.35 871.279 1576.64 L866.186 1576.64 Q861.412 1569.16 859.025 1561.93 Q856.669 1554.71 856.669 1547.58 Q856.669 1540.48 859.025 1533.29 Q861.38 1526.09 866.186 1518.58 L871.279 1518.58 Z" fill="#000000" fill-rule="nonzero" fill-opacity="1" /><path clip-path="url(#clip970)" d="M888.434 1522.27 L888.434 1532.4 L900.497 1532.4 L900.497 1536.95 L888.434 1536.95 L888.434 1556.3 Q888.434 1560.66 889.612 1561.9 Q890.821 1563.14 894.482 1563.14 L900.497 1563.14 L900.497 1568.04 L894.482 1568.04 Q887.702 1568.04 885.124 1565.53 Q882.546 1562.98 882.546 1556.3 L882.546 1536.95 L878.249 1536.95 L878.249 1532.4 L882.546 1532.4 L882.546 1522.27 L888.434 1522.27 Z" fill="#000000" fill-rule="nonzero" fill-opacity="1" /><path clip-path="url(#clip970)" d="M928.856 1537.87 Q927.87 1537.3 926.692 1537.04 Q925.546 1536.76 924.146 1536.76 Q919.181 1536.76 916.507 1540 Q913.865 1543.22 913.865 1549.27 L913.865 1568.04 L907.977 1568.04 L907.977 1532.4 L913.865 1532.4 L913.865 1537.93 Q915.711 1534.69 918.671 1533.13 Q921.631 1531.54 925.865 1531.54 Q926.469 1531.54 927.201 1531.63 Q927.933 1531.7 928.825 1531.85 L928.856 1537.87 Z" fill="#000000" fill-rule="nonzero" fill-opacity="1" /><path clip-path="url(#clip970)" d="M951.2 1550.12 Q944.102 1550.12 941.365 1551.75 Q938.628 1553.37 938.628 1557.29 Q938.628 1560.4 940.665 1562.25 Q942.734 1564.07 946.267 1564.07 Q951.136 1564.07 954.065 1560.63 Q957.025 1557.16 957.025 1551.43 L957.025 1550.12 L951.2 1550.12 M962.881 1547.71 L962.881 1568.04 L957.025 1568.04 L957.025 1562.63 Q955.019 1565.88 952.028 1567.44 Q949.036 1568.97 944.707 1568.97 Q939.233 1568.97 935.986 1565.91 Q932.771 1562.82 932.771 1557.67 Q932.771 1551.65 936.782 1548.6 Q940.824 1545.54 948.813 1545.54 L957.025 1545.54 L957.025 1544.97 Q957.025 1540.93 954.351 1538.73 Q951.709 1536.5 946.903 1536.5 Q943.848 1536.5 940.951 1537.23 Q938.055 1537.97 935.381 1539.43 L935.381 1534.02 Q938.596 1532.78 941.62 1532.17 Q944.643 1531.54 947.508 1531.54 Q955.242 1531.54 959.062 1535.55 Q962.881 1539.56 962.881 1547.71 Z" fill="#000000" fill-rule="nonzero" fill-opacity="1" /><path clip-path="url(#clip970)" d="M1004.58 1546.53 L1004.58 1568.04 L998.72 1568.04 L998.72 1546.72 Q998.72 1541.66 996.747 1539.14 Q994.773 1536.63 990.827 1536.63 Q986.084 1536.63 983.347 1539.65 Q980.61 1542.68 980.61 1547.9 L980.61 1568.04 L974.721 1568.04 L974.721 1532.4 L980.61 1532.4 L980.61 1537.93 Q982.71 1534.72 985.543 1533.13 Q988.408 1531.54 992.132 1531.54 Q998.274 1531.54 1001.43 1535.36 Q1004.58 1539.14 1004.58 1546.53 Z" fill="#000000" fill-rule="nonzero" fill-opacity="1" /><path clip-path="url(#clip970)" d="M1038.98 1533.45 L1038.98 1538.98 Q1036.5 1537.71 1033.83 1537.07 Q1031.15 1536.44 1028.29 1536.44 Q1023.93 1536.44 1021.73 1537.77 Q1019.57 1539.11 1019.57 1541.79 Q1019.57 1543.82 1021.13 1545 Q1022.69 1546.15 1027.4 1547.2 L1029.4 1547.64 Q1035.64 1548.98 1038.25 1551.43 Q1040.89 1553.85 1040.89 1558.21 Q1040.89 1563.17 1036.95 1566.07 Q1033.03 1568.97 1026.16 1568.97 Q1023.29 1568.97 1020.17 1568.39 Q1017.09 1567.85 1013.65 1566.74 L1013.65 1560.69 Q1016.89 1562.38 1020.05 1563.24 Q1023.2 1564.07 1026.28 1564.07 Q1030.42 1564.07 1032.65 1562.66 Q1034.88 1561.23 1034.88 1558.65 Q1034.88 1556.27 1033.25 1554.99 Q1031.66 1553.72 1026.22 1552.54 L1024.18 1552.07 Q1018.74 1550.92 1016.32 1548.56 Q1013.9 1546.18 1013.9 1542.04 Q1013.9 1537.01 1017.47 1534.27 Q1021.03 1531.54 1027.59 1531.54 Q1030.84 1531.54 1033.7 1532.01 Q1036.56 1532.49 1038.98 1533.45 Z" fill="#000000" fill-rule="nonzero" fill-opacity="1" /><path clip-path="url(#clip970)" d="M1050.22 1532.4 L1056.08 1532.4 L1056.08 1568.04 L1050.22 1568.04 L1050.22 1532.4 M1050.22 1518.52 L1056.08 1518.52 L1056.08 1525.93 L1050.22 1525.93 L1050.22 1518.52 Z" fill="#000000" fill-rule="nonzero" fill-opacity="1" /><path clip-path="url(#clip970)" d="M1074.12 1522.27 L1074.12 1532.4 L1086.18 1532.4 L1086.18 1536.95 L1074.12 1536.95 L1074.12 1556.3 Q1074.12 1560.66 1075.3 1561.9 Q1076.51 1563.14 1080.17 1563.14 L1086.18 1563.14 L1086.18 1568.04 L1080.17 1568.04 Q1073.39 1568.04 1070.81 1565.53 Q1068.23 1562.98 1068.23 1556.3 L1068.23 1536.95 L1063.94 1536.95 L1063.94 1532.4 L1068.23 1532.4 L1068.23 1522.27 L1074.12 1522.27 Z" fill="#000000" fill-rule="nonzero" fill-opacity="1" /><path clip-path="url(#clip970)" d="M1107.7 1536.5 Q1102.99 1536.5 1100.25 1540.19 Q1097.52 1543.85 1097.52 1550.25 Q1097.52 1556.65 1100.22 1560.34 Q1102.96 1564 1107.7 1564 Q1112.38 1564 1115.12 1560.31 Q1117.85 1556.62 1117.85 1550.25 Q1117.85 1543.92 1115.12 1540.23 Q1112.38 1536.5 1107.7 1536.5 M1107.7 1531.54 Q1115.34 1531.54 1119.7 1536.5 Q1124.06 1541.47 1124.06 1550.25 Q1124.06 1559 1119.7 1564 Q1115.34 1568.97 1107.7 1568.97 Q1100.03 1568.97 1095.67 1564 Q1091.34 1559 1091.34 1550.25 Q1091.34 1541.47 1095.67 1536.5 Q1100.03 1531.54 1107.7 1531.54 Z" fill="#000000" fill-rule="nonzero" fill-opacity="1" /><path clip-path="url(#clip970)" d="M1154.43 1537.87 Q1153.44 1537.3 1152.26 1537.04 Q1151.12 1536.76 1149.71 1536.76 Q1144.75 1536.76 1142.08 1540 Q1139.43 1543.22 1139.43 1549.27 L1139.43 1568.04 L1133.55 1568.04 L1133.55 1532.4 L1139.43 1532.4 L1139.43 1537.93 Q1141.28 1534.69 1144.24 1533.13 Q1147.2 1531.54 1151.43 1531.54 Q1152.04 1531.54 1152.77 1531.63 Q1153.5 1531.7 1154.39 1531.85 L1154.43 1537.87 Z" fill="#000000" fill-rule="nonzero" fill-opacity="1" /><path clip-path="url(#clip970)" d="M1175.4 1571.35 Q1172.92 1577.72 1170.56 1579.66 Q1168.21 1581.6 1164.26 1581.6 L1159.58 1581.6 L1159.58 1576.7 L1163.02 1576.7 Q1165.44 1576.7 1166.77 1575.56 Q1168.11 1574.41 1169.73 1570.14 L1170.79 1567.47 L1156.37 1532.4 L1162.57 1532.4 L1173.71 1560.28 L1184.85 1532.4 L1191.06 1532.4 L1175.4 1571.35 Z" fill="#000000" fill-rule="nonzero" fill-opacity="1" /><path clip-path="url(#clip970)" d="M1236 1526.86 L1227.28 1550.51 L1244.75 1550.51 L1236 1526.86 M1232.37 1520.52 L1239.66 1520.52 L1257.77 1568.04 L1251.09 1568.04 L1246.76 1555.85 L1225.34 1555.85 L1221.01 1568.04 L1214.23 1568.04 L1232.37 1520.52 Z" fill="#000000" fill-rule="nonzero" fill-opacity="1" /><path clip-path="url(#clip970)" d="M1287.25 1545.76 Q1289.31 1546.46 1291.26 1548.76 Q1293.23 1551.05 1295.2 1555.06 L1301.73 1568.04 L1294.82 1568.04 L1288.74 1555.85 Q1286.39 1551.08 1284.16 1549.52 Q1281.96 1547.96 1278.14 1547.96 L1271.14 1547.96 L1271.14 1568.04 L1264.71 1568.04 L1264.71 1520.52 L1279.22 1520.52 Q1287.37 1520.52 1291.38 1523.93 Q1295.39 1527.34 1295.39 1534.21 Q1295.39 1538.7 1293.29 1541.66 Q1291.22 1544.62 1287.25 1545.76 M1271.14 1525.81 L1271.14 1542.68 L1279.22 1542.68 Q1283.87 1542.68 1286.23 1540.54 Q1288.61 1538.38 1288.61 1534.21 Q1288.61 1530.04 1286.23 1527.94 Q1283.87 1525.81 1279.22 1525.81 L1271.14 1525.81 Z" fill="#000000" fill-rule="nonzero" fill-opacity="1" /><path clip-path="url(#clip970)" d="M1323.82 1518.58 Q1319.55 1525.9 1317.48 1533.06 Q1315.41 1540.23 1315.41 1547.58 Q1315.41 1554.93 1317.48 1562.16 Q1319.58 1569.35 1323.82 1576.64 L1318.72 1576.64 Q1313.95 1569.16 1311.56 1561.93 Q1309.21 1554.71 1309.21 1547.58 Q1309.21 1540.48 1311.56 1533.29 Q1313.92 1526.09 1318.72 1518.58 L1323.82 1518.58 Z" fill="#000000" fill-rule="nonzero" fill-opacity="1" /><path clip-path="url(#clip970)" d="M1337.12 1562.63 L1347.62 1562.63 L1347.62 1526.38 L1336.2 1528.67 L1336.2 1522.82 L1347.56 1520.52 L1353.99 1520.52 L1353.99 1562.63 L1364.49 1562.63 L1364.49 1568.04 L1337.12 1568.04 L1337.12 1562.63 Z" fill="#000000" fill-rule="nonzero" fill-opacity="1" /><path clip-path="url(#clip970)" d="M1375.73 1518.58 L1380.82 1518.58 Q1385.6 1526.09 1387.95 1533.29 Q1390.34 1540.48 1390.34 1547.58 Q1390.34 1554.71 1387.95 1561.93 Q1385.6 1569.16 1380.82 1576.64 L1375.73 1576.64 Q1379.96 1569.35 1382.03 1562.16 Q1384.13 1554.93 1384.13 1547.58 Q1384.13 1540.23 1382.03 1533.06 Q1379.96 1525.9 1375.73 1518.58 Z" fill="#000000" fill-rule="nonzero" fill-opacity="1" /><path clip-path="url(#clip970)" d="M1448.46 1533.76 L1448.46 1539.24 Q1445.97 1537.87 1443.46 1537.2 Q1440.98 1536.5 1438.43 1536.5 Q1432.73 1536.5 1429.58 1540.13 Q1426.43 1543.73 1426.43 1550.25 Q1426.43 1556.78 1429.58 1560.4 Q1432.73 1564 1438.43 1564 Q1440.98 1564 1443.46 1563.33 Q1445.97 1562.63 1448.46 1561.26 L1448.46 1566.68 Q1446.01 1567.82 1443.36 1568.39 Q1440.75 1568.97 1437.79 1568.97 Q1429.74 1568.97 1425 1563.91 Q1420.26 1558.85 1420.26 1550.25 Q1420.26 1541.53 1425.03 1536.53 Q1429.84 1531.54 1438.18 1531.54 Q1440.88 1531.54 1443.46 1532.11 Q1446.04 1532.65 1448.46 1533.76 Z" fill="#000000" fill-rule="nonzero" fill-opacity="1" /><path clip-path="url(#clip970)" d="M1472.46 1536.5 Q1467.75 1536.5 1465.01 1540.19 Q1462.27 1543.85 1462.27 1550.25 Q1462.27 1556.65 1464.98 1560.34 Q1467.71 1564 1472.46 1564 Q1477.13 1564 1479.87 1560.31 Q1482.61 1556.62 1482.61 1550.25 Q1482.61 1543.92 1479.87 1540.23 Q1477.13 1536.5 1472.46 1536.5 M1472.46 1531.54 Q1480.09 1531.54 1484.46 1536.5 Q1488.82 1541.47 1488.82 1550.25 Q1488.82 1559 1484.46 1564 Q1480.09 1568.97 1472.46 1568.97 Q1464.79 1568.97 1460.42 1564 Q1456.1 1559 1456.1 1550.25 Q1456.1 1541.47 1460.42 1536.5 Q1464.79 1531.54 1472.46 1531.54 Z" fill="#000000" fill-rule="nonzero" fill-opacity="1" /><path clip-path="url(#clip970)" d="M1529.02 1548.76 L1529.02 1551.62 L1502.09 1551.62 Q1502.47 1557.67 1505.72 1560.85 Q1509 1564 1514.82 1564 Q1518.19 1564 1521.34 1563.17 Q1524.53 1562.35 1527.65 1560.69 L1527.65 1566.23 Q1524.5 1567.57 1521.19 1568.27 Q1517.88 1568.97 1514.47 1568.97 Q1505.94 1568.97 1500.94 1564 Q1495.98 1559.04 1495.98 1550.57 Q1495.98 1541.82 1500.69 1536.69 Q1505.43 1531.54 1513.45 1531.54 Q1520.64 1531.54 1524.81 1536.18 Q1529.02 1540.8 1529.02 1548.76 M1523.16 1547.04 Q1523.1 1542.23 1520.45 1539.37 Q1517.84 1536.5 1513.51 1536.5 Q1508.61 1536.5 1505.65 1539.27 Q1502.72 1542.04 1502.28 1547.07 L1523.16 1547.04 Z" fill="#000000" fill-rule="nonzero" fill-opacity="1" /><path clip-path="url(#clip970)" d="M1556.67 1518.52 L1556.67 1523.39 L1551.07 1523.39 Q1547.92 1523.39 1546.68 1524.66 Q1545.47 1525.93 1545.47 1529.24 L1545.47 1532.4 L1555.11 1532.4 L1555.11 1536.95 L1545.47 1536.95 L1545.47 1568.04 L1539.58 1568.04 L1539.58 1536.95 L1533.98 1536.95 L1533.98 1532.4 L1539.58 1532.4 L1539.58 1529.91 Q1539.58 1523.96 1542.35 1521.26 Q1545.12 1518.52 1551.14 1518.52 L1556.67 1518.52 Z" fill="#000000" fill-rule="nonzero" fill-opacity="1" /><path clip-path="url(#clip970)" d="M1579.62 1518.52 L1579.62 1523.39 L1574.02 1523.39 Q1570.87 1523.39 1569.63 1524.66 Q1568.42 1525.93 1568.42 1529.24 L1568.42 1532.4 L1578.06 1532.4 L1578.06 1536.95 L1568.42 1536.95 L1568.42 1568.04 L1562.53 1568.04 L1562.53 1536.95 L1556.93 1536.95 L1556.93 1532.4 L1562.53 1532.4 L1562.53 1529.91 Q1562.53 1523.96 1565.3 1521.26 Q1568.07 1518.52 1574.08 1518.52 L1579.62 1518.52 Z" fill="#000000" fill-rule="nonzero" fill-opacity="1" /><path clip-path="url(#clip970)" d="M1584.52 1532.4 L1590.38 1532.4 L1590.38 1568.04 L1584.52 1568.04 L1584.52 1532.4 M1584.52 1518.52 L1590.38 1518.52 L1590.38 1525.93 L1584.52 1525.93 L1584.52 1518.52 Z" fill="#000000" fill-rule="nonzero" fill-opacity="1" /><path clip-path="url(#clip970)" d="M1628.29 1533.76 L1628.29 1539.24 Q1625.81 1537.87 1623.29 1537.2 Q1620.81 1536.5 1618.26 1536.5 Q1612.57 1536.5 1609.41 1540.13 Q1606.26 1543.73 1606.26 1550.25 Q1606.26 1556.78 1609.41 1560.4 Q1612.57 1564 1618.26 1564 Q1620.81 1564 1623.29 1563.33 Q1625.81 1562.63 1628.29 1561.26 L1628.29 1566.68 Q1625.84 1567.82 1623.2 1568.39 Q1620.59 1568.97 1617.63 1568.97 Q1609.57 1568.97 1604.83 1563.91 Q1600.09 1558.85 1600.09 1550.25 Q1600.09 1541.53 1604.86 1536.53 Q1609.67 1531.54 1618.01 1531.54 Q1620.71 1531.54 1623.29 1532.11 Q1625.87 1532.65 1628.29 1533.76 Z" fill="#000000" fill-rule="nonzero" fill-opacity="1" /><path clip-path="url(#clip970)" d="M1638.47 1532.4 L1644.33 1532.4 L1644.33 1568.04 L1638.47 1568.04 L1638.47 1532.4 M1638.47 1518.52 L1644.33 1518.52 L1644.33 1525.93 L1638.47 1525.93 L1638.47 1518.52 Z" fill="#000000" fill-rule="nonzero" fill-opacity="1" /><path clip-path="url(#clip970)" d="M1687.08 1548.76 L1687.08 1551.62 L1660.15 1551.62 Q1660.53 1557.67 1663.78 1560.85 Q1667.06 1564 1672.88 1564 Q1676.25 1564 1679.41 1563.17 Q1682.59 1562.35 1685.71 1560.69 L1685.71 1566.23 Q1682.56 1567.57 1679.25 1568.27 Q1675.94 1568.97 1672.53 1568.97 Q1664 1568.97 1659 1564 Q1654.04 1559.04 1654.04 1550.57 Q1654.04 1541.82 1658.75 1536.69 Q1663.49 1531.54 1671.51 1531.54 Q1678.7 1531.54 1682.87 1536.18 Q1687.08 1540.8 1687.08 1548.76 M1681.22 1547.04 Q1681.16 1542.23 1678.51 1539.37 Q1675.9 1536.5 1671.58 1536.5 Q1666.67 1536.5 1663.71 1539.27 Q1660.79 1542.04 1660.34 1547.07 L1681.22 1547.04 Z" fill="#000000" fill-rule="nonzero" fill-opacity="1" /><path clip-path="url(#clip970)" d="M1726.32 1546.53 L1726.32 1568.04 L1720.46 1568.04 L1720.46 1546.72 Q1720.46 1541.66 1718.49 1539.14 Q1716.52 1536.63 1712.57 1536.63 Q1707.83 1536.63 1705.09 1539.65 Q1702.35 1542.68 1702.35 1547.9 L1702.35 1568.04 L1696.47 1568.04 L1696.47 1532.4 L1702.35 1532.4 L1702.35 1537.93 Q1704.45 1534.72 1707.29 1533.13 Q1710.15 1531.54 1713.88 1531.54 Q1720.02 1531.54 1723.17 1535.36 Q1726.32 1539.14 1726.32 1546.53 Z" fill="#000000" fill-rule="nonzero" fill-opacity="1" /><path clip-path="url(#clip970)" d="M1743.79 1522.27 L1743.79 1532.4 L1755.86 1532.4 L1755.86 1536.95 L1743.79 1536.95 L1743.79 1556.3 Q1743.79 1560.66 1744.97 1561.9 Q1746.18 1563.14 1749.84 1563.14 L1755.86 1563.14 L1755.86 1568.04 L1749.84 1568.04 Q1743.06 1568.04 1740.48 1565.53 Q1737.91 1562.98 1737.91 1556.3 L1737.91 1536.95 L1733.61 1536.95 L1733.61 1532.4 L1737.91 1532.4 L1737.91 1522.27 L1743.79 1522.27 Z" fill="#000000" fill-rule="nonzero" fill-opacity="1" /><path clip-path="url(#clip970)" d="M1762.64 1518.58 L1767.73 1518.58 Q1772.5 1526.09 1774.86 1533.29 Q1777.25 1540.48 1777.25 1547.58 Q1777.25 1554.71 1774.86 1561.93 Q1772.5 1569.16 1767.73 1576.64 L1762.64 1576.64 Q1766.87 1569.35 1768.94 1562.16 Q1771.04 1554.93 1771.04 1547.58 Q1771.04 1540.23 1768.94 1533.06 Q1766.87 1525.9 1762.64 1518.58 Z" fill="#000000" fill-rule="nonzero" fill-opacity="1" /><polyline clip-path="url(#clip970)" style="stroke:#000000; stroke-linecap:round; stroke-linejoin:round; stroke-width:4; stroke-opacity:1; fill:none" points="219.38,1423.18 219.38,47.2441 "/>
<polyline clip-path="url(#clip970)" style="stroke:#000000; stroke-linecap:round; stroke-linejoin:round; stroke-width:4; stroke-opacity:1; fill:none" points="219.38,1384.24 238.278,1384.24 "/>
<polyline clip-path="url(#clip970)" style="stroke:#000000; stroke-linecap:round; stroke-linejoin:round; stroke-width:4; stroke-opacity:1; fill:none" points="219.38,1008.29 238.278,1008.29 "/>
<polyline clip-path="url(#clip970)" style="stroke:#000000; stroke-linecap:round; stroke-linejoin:round; stroke-width:4; stroke-opacity:1; fill:none" points="219.38,632.334 238.278,632.334 "/>
<polyline clip-path="url(#clip970)" style="stroke:#000000; stroke-linecap:round; stroke-linejoin:round; stroke-width:4; stroke-opacity:1; fill:none" points="219.38,256.382 238.278,256.382 "/>
<path clip-path="url(#clip970)" d="M126.205 1370.04 Q122.593 1370.04 120.765 1373.6 Q118.959 1377.14 118.959 1384.27 Q118.959 1391.38 120.765 1394.94 Q122.593 1398.49 126.205 1398.49 Q129.839 1398.49 131.644 1394.94 Q133.473 1391.38 133.473 1384.27 Q133.473 1377.14 131.644 1373.6 Q129.839 1370.04 126.205 1370.04 M126.205 1366.33 Q132.015 1366.33 135.07 1370.94 Q138.149 1375.52 138.149 1384.27 Q138.149 1393 135.07 1397.61 Q132.015 1402.19 126.205 1402.19 Q120.394 1402.19 117.316 1397.61 Q114.26 1393 114.26 1384.27 Q114.26 1375.52 117.316 1370.94 Q120.394 1366.33 126.205 1366.33 Z" fill="#000000" fill-rule="nonzero" fill-opacity="1" /><path clip-path="url(#clip970)" d="M146.366 1395.64 L151.251 1395.64 L151.251 1401.52 L146.366 1401.52 L146.366 1395.64 Z" fill="#000000" fill-rule="nonzero" fill-opacity="1" /><path clip-path="url(#clip970)" d="M171.436 1370.04 Q167.825 1370.04 165.996 1373.6 Q164.19 1377.14 164.19 1384.27 Q164.19 1391.38 165.996 1394.94 Q167.825 1398.49 171.436 1398.49 Q175.07 1398.49 176.876 1394.94 Q178.704 1391.38 178.704 1384.27 Q178.704 1377.14 176.876 1373.6 Q175.07 1370.04 171.436 1370.04 M171.436 1366.33 Q177.246 1366.33 180.301 1370.94 Q183.38 1375.52 183.38 1384.27 Q183.38 1393 180.301 1397.61 Q177.246 1402.19 171.436 1402.19 Q165.626 1402.19 162.547 1397.61 Q159.491 1393 159.491 1384.27 Q159.491 1375.52 162.547 1370.94 Q165.626 1366.33 171.436 1366.33 Z" fill="#000000" fill-rule="nonzero" fill-opacity="1" /><path clip-path="url(#clip970)" d="M127.431 994.085 Q123.82 994.085 121.992 997.65 Q120.186 1001.19 120.186 1008.32 Q120.186 1015.43 121.992 1018.99 Q123.82 1022.53 127.431 1022.53 Q131.066 1022.53 132.871 1018.99 Q134.7 1015.43 134.7 1008.32 Q134.7 1001.19 132.871 997.65 Q131.066 994.085 127.431 994.085 M127.431 990.381 Q133.242 990.381 136.297 994.988 Q139.376 999.571 139.376 1008.32 Q139.376 1017.05 136.297 1021.65 Q133.242 1026.24 127.431 1026.24 Q121.621 1026.24 118.543 1021.65 Q115.487 1017.05 115.487 1008.32 Q115.487 999.571 118.543 994.988 Q121.621 990.381 127.431 990.381 Z" fill="#000000" fill-rule="nonzero" fill-opacity="1" /><path clip-path="url(#clip970)" d="M147.593 1019.69 L152.478 1019.69 L152.478 1025.57 L147.593 1025.57 L147.593 1019.69 Z" fill="#000000" fill-rule="nonzero" fill-opacity="1" /><path clip-path="url(#clip970)" d="M163.473 1021.63 L171.112 1021.63 L171.112 995.266 L162.802 996.932 L162.802 992.673 L171.065 991.006 L175.741 991.006 L175.741 1021.63 L183.38 1021.63 L183.38 1025.57 L163.473 1025.57 L163.473 1021.63 Z" fill="#000000" fill-rule="nonzero" fill-opacity="1" /><path clip-path="url(#clip970)" d="M127.802 618.133 Q124.191 618.133 122.362 621.698 Q120.556 625.24 120.556 632.369 Q120.556 639.476 122.362 643.04 Q124.191 646.582 127.802 646.582 Q131.436 646.582 133.242 643.04 Q135.07 639.476 135.07 632.369 Q135.07 625.24 133.242 621.698 Q131.436 618.133 127.802 618.133 M127.802 614.429 Q133.612 614.429 136.667 619.036 Q139.746 623.619 139.746 632.369 Q139.746 641.096 136.667 645.702 Q133.612 650.286 127.802 650.286 Q121.992 650.286 118.913 645.702 Q115.857 641.096 115.857 632.369 Q115.857 623.619 118.913 619.036 Q121.992 614.429 127.802 614.429 Z" fill="#000000" fill-rule="nonzero" fill-opacity="1" /><path clip-path="url(#clip970)" d="M147.964 643.735 L152.848 643.735 L152.848 649.614 L147.964 649.614 L147.964 643.735 Z" fill="#000000" fill-rule="nonzero" fill-opacity="1" /><path clip-path="url(#clip970)" d="M167.061 645.679 L183.38 645.679 L183.38 649.614 L161.436 649.614 L161.436 645.679 Q164.098 642.925 168.681 638.295 Q173.288 633.642 174.468 632.3 Q176.714 629.777 177.593 628.04 Q178.496 626.281 178.496 624.591 Q178.496 621.837 176.551 620.101 Q174.63 618.365 171.528 618.365 Q169.329 618.365 166.876 619.128 Q164.445 619.892 161.667 621.443 L161.667 616.721 Q164.491 615.587 166.945 615.008 Q169.399 614.429 171.436 614.429 Q176.806 614.429 180.001 617.115 Q183.195 619.8 183.195 624.29 Q183.195 626.42 182.385 628.341 Q181.598 630.239 179.491 632.832 Q178.913 633.503 175.811 636.721 Q172.709 639.915 167.061 645.679 Z" fill="#000000" fill-rule="nonzero" fill-opacity="1" /><path clip-path="url(#clip970)" d="M126.853 242.181 Q123.242 242.181 121.413 245.746 Q119.607 249.288 119.607 256.417 Q119.607 263.524 121.413 267.088 Q123.242 270.63 126.853 270.63 Q130.487 270.63 132.292 267.088 Q134.121 263.524 134.121 256.417 Q134.121 249.288 132.292 245.746 Q130.487 242.181 126.853 242.181 M126.853 238.477 Q132.663 238.477 135.718 243.084 Q138.797 247.667 138.797 256.417 Q138.797 265.144 135.718 269.75 Q132.663 274.334 126.853 274.334 Q121.043 274.334 117.964 269.75 Q114.908 265.144 114.908 256.417 Q114.908 247.667 117.964 243.084 Q121.043 238.477 126.853 238.477 Z" fill="#000000" fill-rule="nonzero" fill-opacity="1" /><path clip-path="url(#clip970)" d="M147.015 267.783 L151.899 267.783 L151.899 273.662 L147.015 273.662 L147.015 267.783 Z" fill="#000000" fill-rule="nonzero" fill-opacity="1" /><path clip-path="url(#clip970)" d="M176.251 255.028 Q179.607 255.746 181.482 258.014 Q183.38 260.283 183.38 263.616 Q183.38 268.732 179.862 271.533 Q176.343 274.334 169.862 274.334 Q167.686 274.334 165.371 273.894 Q163.079 273.477 160.626 272.621 L160.626 268.107 Q162.57 269.241 164.885 269.82 Q167.2 270.399 169.723 270.399 Q174.121 270.399 176.413 268.662 Q178.727 266.926 178.727 263.616 Q178.727 260.561 176.575 258.848 Q174.445 257.112 170.626 257.112 L166.598 257.112 L166.598 253.269 L170.811 253.269 Q174.26 253.269 176.089 251.903 Q177.917 250.514 177.917 247.922 Q177.917 245.26 176.019 243.848 Q174.144 242.413 170.626 242.413 Q168.704 242.413 166.505 242.829 Q164.306 243.246 161.667 244.126 L161.667 239.959 Q164.329 239.218 166.644 238.848 Q168.982 238.477 171.042 238.477 Q176.366 238.477 179.468 240.908 Q182.57 243.315 182.57 247.436 Q182.57 250.306 180.926 252.297 Q179.283 254.264 176.251 255.028 Z" fill="#000000" fill-rule="nonzero" fill-opacity="1" /><path clip-path="url(#clip970)" d="M16.4842 1128.92 L16.4842 1122.49 L36.568 1122.49 L16.4842 1101.16 L16.4842 1092.89 L38.6368 1116.47 L64.0042 1091.2 L64.0042 1099.66 L41.1194 1122.49 L64.0042 1122.49 L64.0042 1128.92 L16.4842 1128.92 Z" fill="#000000" fill-rule="nonzero" fill-opacity="1" /><path clip-path="url(#clip970)" d="M46.0847 1071.37 Q46.0847 1078.47 47.7079 1081.2 Q49.3312 1083.94 53.2461 1083.94 Q56.3653 1083.94 58.2114 1081.9 Q60.0256 1079.84 60.0256 1076.3 Q60.0256 1071.43 56.5881 1068.5 Q53.1188 1065.54 47.3897 1065.54 L46.0847 1065.54 L46.0847 1071.37 M43.6657 1059.69 L64.0042 1059.69 L64.0042 1065.54 L58.5933 1065.54 Q61.8398 1067.55 63.3994 1070.54 Q64.9272 1073.53 64.9272 1077.86 Q64.9272 1083.34 61.8716 1086.58 Q58.7843 1089.8 53.6281 1089.8 Q47.6125 1089.8 44.5569 1085.79 Q41.5014 1081.75 41.5014 1073.76 L41.5014 1065.54 L40.9285 1065.54 Q36.8862 1065.54 34.6901 1068.22 Q32.4621 1070.86 32.4621 1075.67 Q32.4621 1078.72 33.1941 1081.62 Q33.9262 1084.51 35.3903 1087.19 L29.9795 1087.19 Q28.7381 1083.97 28.1334 1080.95 Q27.4968 1077.93 27.4968 1075.06 Q27.4968 1067.33 31.5072 1063.51 Q35.5176 1059.69 43.6657 1059.69 Z" fill="#000000" fill-rule="nonzero" fill-opacity="1" /><path clip-path="url(#clip970)" d="M14.479 1047.62 L14.479 1041.77 L64.0042 1041.77 L64.0042 1047.62 L14.479 1047.62 Z" fill="#000000" fill-rule="nonzero" fill-opacity="1" /><path clip-path="url(#clip970)" d="M35.1993 1001.76 Q31.2526 999.564 29.3747 996.508 Q27.4968 993.453 27.4968 989.315 Q27.4968 983.745 31.4117 980.721 Q35.2948 977.698 42.4881 977.698 L64.0042 977.698 L64.0042 983.586 L42.679 983.586 Q37.5546 983.586 35.072 985.4 Q32.5894 987.214 32.5894 990.938 Q32.5894 995.49 35.6131 998.132 Q38.6368 1000.77 43.8567 1000.77 L64.0042 1000.77 L64.0042 1006.66 L42.679 1006.66 Q37.5228 1006.66 35.072 1008.48 Q32.5894 1010.29 32.5894 1014.08 Q32.5894 1018.57 35.6449 1021.21 Q38.6686 1023.85 43.8567 1023.85 L64.0042 1023.85 L64.0042 1029.74 L28.3562 1029.74 L28.3562 1023.85 L33.8944 1023.85 Q30.616 1021.84 29.0564 1019.04 Q27.4968 1016.24 27.4968 1012.39 Q27.4968 1008.51 29.4702 1005.8 Q31.4436 1003.06 35.1993 1001.76 Z" fill="#000000" fill-rule="nonzero" fill-opacity="1" /><path clip-path="url(#clip970)" d="M46.0847 949.816 Q46.0847 956.914 47.7079 959.651 Q49.3312 962.388 53.2461 962.388 Q56.3653 962.388 58.2114 960.351 Q60.0256 958.282 60.0256 954.749 Q60.0256 949.88 56.5881 946.951 Q53.1188 943.991 47.3897 943.991 L46.0847 943.991 L46.0847 949.816 M43.6657 938.135 L64.0042 938.135 L64.0042 943.991 L58.5933 943.991 Q61.8398 945.996 63.3994 948.988 Q64.9272 951.98 64.9272 956.309 Q64.9272 961.783 61.8716 965.03 Q58.7843 968.245 53.6281 968.245 Q47.6125 968.245 44.5569 964.234 Q41.5014 960.192 41.5014 952.203 L41.5014 943.991 L40.9285 943.991 Q36.8862 943.991 34.6901 946.665 Q32.4621 949.307 32.4621 954.113 Q32.4621 957.168 33.1941 960.065 Q33.9262 962.961 35.3903 965.635 L29.9795 965.635 Q28.7381 962.42 28.1334 959.396 Q27.4968 956.373 27.4968 953.508 Q27.4968 945.774 31.5072 941.954 Q35.5176 938.135 43.6657 938.135 Z" fill="#000000" fill-rule="nonzero" fill-opacity="1" /><path clip-path="url(#clip970)" d="M42.4881 896.439 L64.0042 896.439 L64.0042 902.296 L42.679 902.296 Q37.6183 902.296 35.1038 904.269 Q32.5894 906.243 32.5894 910.189 Q32.5894 914.932 35.6131 917.669 Q38.6368 920.406 43.8567 920.406 L64.0042 920.406 L64.0042 926.295 L28.3562 926.295 L28.3562 920.406 L33.8944 920.406 Q30.6797 918.306 29.0883 915.473 Q27.4968 912.608 27.4968 908.884 Q27.4968 902.741 31.3163 899.59 Q35.1038 896.439 42.4881 896.439 Z" fill="#000000" fill-rule="nonzero" fill-opacity="1" /><path clip-path="url(#clip970)" d="M45.7664 840.58 Q39.4007 840.58 35.8996 843.222 Q32.3984 845.832 32.3984 850.574 Q32.3984 855.285 35.8996 857.927 Q39.4007 860.537 45.7664 860.537 Q52.1003 860.537 55.6014 857.927 Q59.1026 855.285 59.1026 850.574 Q59.1026 845.832 55.6014 843.222 Q52.1003 840.58 45.7664 840.58 M59.58 834.724 Q68.683 834.724 73.1071 838.766 Q77.5631 842.808 77.5631 851.147 Q77.5631 854.235 77.0857 856.972 Q76.6401 859.709 75.6852 862.287 L69.9879 862.287 Q71.3884 859.709 72.0568 857.195 Q72.7252 854.68 72.7252 852.07 Q72.7252 846.309 69.7015 843.445 Q66.7096 840.58 60.6303 840.58 L57.7339 840.58 Q60.885 842.395 62.4446 845.227 Q64.0042 848.06 64.0042 852.007 Q64.0042 858.563 59.0071 862.574 Q54.01 866.584 45.7664 866.584 Q37.491 866.584 32.4939 862.574 Q27.4968 858.563 27.4968 852.007 Q27.4968 848.06 29.0564 845.227 Q30.616 842.395 33.7671 840.58 L28.3562 840.58 L28.3562 834.724 L59.58 834.724 Z" fill="#000000" fill-rule="nonzero" fill-opacity="1" /><path clip-path="url(#clip970)" d="M46.0847 806.46 Q46.0847 813.558 47.7079 816.295 Q49.3312 819.032 53.2461 819.032 Q56.3653 819.032 58.2114 816.995 Q60.0256 814.927 60.0256 811.394 Q60.0256 806.524 56.5881 803.596 Q53.1188 800.636 47.3897 800.636 L46.0847 800.636 L46.0847 806.46 M43.6657 794.779 L64.0042 794.779 L64.0042 800.636 L58.5933 800.636 Q61.8398 802.641 63.3994 805.633 Q64.9272 808.624 64.9272 812.953 Q64.9272 818.428 61.8716 821.674 Q58.7843 824.889 53.6281 824.889 Q47.6125 824.889 44.5569 820.878 Q41.5014 816.836 41.5014 808.847 L41.5014 800.636 L40.9285 800.636 Q36.8862 800.636 34.6901 803.309 Q32.4621 805.951 32.4621 810.757 Q32.4621 813.813 33.1941 816.709 Q33.9262 819.605 35.3903 822.279 L29.9795 822.279 Q28.7381 819.064 28.1334 816.041 Q27.4968 813.017 27.4968 810.152 Q27.4968 802.418 31.5072 798.598 Q35.5176 794.779 43.6657 794.779 Z" fill="#000000" fill-rule="nonzero" fill-opacity="1" /><path clip-path="url(#clip970)" d="M28.3562 782.716 L28.3562 776.86 L64.0042 776.86 L64.0042 782.716 L28.3562 782.716 M14.479 782.716 L14.479 776.86 L21.895 776.86 L21.895 782.716 L14.479 782.716 Z" fill="#000000" fill-rule="nonzero" fill-opacity="1" /><path clip-path="url(#clip970)" d="M42.4881 734.973 L64.0042 734.973 L64.0042 740.83 L42.679 740.83 Q37.6183 740.83 35.1038 742.803 Q32.5894 744.776 32.5894 748.723 Q32.5894 753.466 35.6131 756.203 Q38.6368 758.94 43.8567 758.94 L64.0042 758.94 L64.0042 764.828 L28.3562 764.828 L28.3562 758.94 L33.8944 758.94 Q30.6797 756.839 29.0883 754.007 Q27.4968 751.142 27.4968 747.418 Q27.4968 741.275 31.3163 738.124 Q35.1038 734.973 42.4881 734.973 Z" fill="#000000" fill-rule="nonzero" fill-opacity="1" /><path clip-path="url(#clip970)" d="M29.7248 676.918 L35.1993 676.918 Q33.8307 679.401 33.1623 681.915 Q32.4621 684.398 32.4621 686.944 Q32.4621 692.641 36.0905 695.792 Q39.6872 698.943 46.212 698.943 Q52.7369 698.943 56.3653 695.792 Q59.9619 692.641 59.9619 686.944 Q59.9619 684.398 59.2935 681.915 Q58.5933 679.401 57.2247 676.918 L62.6355 676.918 Q63.7814 679.369 64.3543 682.011 Q64.9272 684.621 64.9272 687.581 Q64.9272 695.633 59.8664 700.376 Q54.8057 705.118 46.212 705.118 Q37.491 705.118 32.4939 700.344 Q27.4968 695.538 27.4968 687.199 Q27.4968 684.493 28.0697 681.915 Q28.6108 679.337 29.7248 676.918 Z" fill="#000000" fill-rule="nonzero" fill-opacity="1" /><path clip-path="url(#clip970)" d="M32.4621 652.919 Q32.4621 657.63 36.1542 660.367 Q39.8145 663.104 46.212 663.104 Q52.6095 663.104 56.3017 660.399 Q59.9619 657.662 59.9619 652.919 Q59.9619 648.241 56.2698 645.503 Q52.5777 642.766 46.212 642.766 Q39.8781 642.766 36.186 645.503 Q32.4621 648.241 32.4621 652.919 M27.4968 652.919 Q27.4968 645.28 32.4621 640.92 Q37.4273 636.559 46.212 636.559 Q54.9649 636.559 59.9619 640.92 Q64.9272 645.28 64.9272 652.919 Q64.9272 660.59 59.9619 664.95 Q54.9649 669.279 46.212 669.279 Q37.4273 669.279 32.4621 664.95 Q27.4968 660.59 27.4968 652.919 Z" fill="#000000" fill-rule="nonzero" fill-opacity="1" /><path clip-path="url(#clip970)" d="M35.1993 599.097 Q31.2526 596.901 29.3747 593.846 Q27.4968 590.79 27.4968 586.652 Q27.4968 581.082 31.4117 578.059 Q35.2948 575.035 42.4881 575.035 L64.0042 575.035 L64.0042 580.923 L42.679 580.923 Q37.5546 580.923 35.072 582.737 Q32.5894 584.552 32.5894 588.276 Q32.5894 592.827 35.6131 595.469 Q38.6368 598.111 43.8567 598.111 L64.0042 598.111 L64.0042 603.999 L42.679 603.999 Q37.5228 603.999 35.072 605.813 Q32.5894 607.627 32.5894 611.415 Q32.5894 615.903 35.6449 618.544 Q38.6686 621.186 43.8567 621.186 L64.0042 621.186 L64.0042 627.075 L28.3562 627.075 L28.3562 621.186 L33.8944 621.186 Q30.616 619.181 29.0564 616.38 Q27.4968 613.579 27.4968 609.728 Q27.4968 605.845 29.4702 603.139 Q31.4436 600.402 35.1993 599.097 Z" fill="#000000" fill-rule="nonzero" fill-opacity="1" /><path clip-path="url(#clip970)" d="M58.657 557.688 L77.5631 557.688 L77.5631 563.577 L28.3562 563.577 L28.3562 557.688 L33.7671 557.688 Q30.5842 555.842 29.0564 553.041 Q27.4968 550.209 27.4968 546.294 Q27.4968 539.801 32.6531 535.758 Q37.8093 531.684 46.212 531.684 Q54.6147 531.684 59.771 535.758 Q64.9272 539.801 64.9272 546.294 Q64.9272 550.209 63.3994 553.041 Q61.8398 555.842 58.657 557.688 M46.212 537.764 Q39.7508 537.764 36.0905 540.437 Q32.3984 543.079 32.3984 547.726 Q32.3984 552.373 36.0905 555.047 Q39.7508 557.688 46.212 557.688 Q52.6732 557.688 56.3653 555.047 Q60.0256 552.373 60.0256 547.726 Q60.0256 543.079 56.3653 540.437 Q52.6732 537.764 46.212 537.764 Z" fill="#000000" fill-rule="nonzero" fill-opacity="1" /><path clip-path="url(#clip970)" d="M32.4621 508.163 Q32.4621 512.874 36.1542 515.611 Q39.8145 518.348 46.212 518.348 Q52.6095 518.348 56.3017 515.643 Q59.9619 512.906 59.9619 508.163 Q59.9619 503.484 56.2698 500.747 Q52.5777 498.01 46.212 498.01 Q39.8781 498.01 36.186 500.747 Q32.4621 503.484 32.4621 508.163 M27.4968 508.163 Q27.4968 500.524 32.4621 496.164 Q37.4273 491.803 46.212 491.803 Q54.9649 491.803 59.9619 496.164 Q64.9272 500.524 64.9272 508.163 Q64.9272 515.834 59.9619 520.194 Q54.9649 524.523 46.212 524.523 Q37.4273 524.523 32.4621 520.194 Q27.4968 515.834 27.4968 508.163 Z" fill="#000000" fill-rule="nonzero" fill-opacity="1" /><path clip-path="url(#clip970)" d="M42.4881 452.463 L64.0042 452.463 L64.0042 458.32 L42.679 458.32 Q37.6183 458.32 35.1038 460.293 Q32.5894 462.266 32.5894 466.213 Q32.5894 470.956 35.6131 473.693 Q38.6368 476.43 43.8567 476.43 L64.0042 476.43 L64.0042 482.318 L28.3562 482.318 L28.3562 476.43 L33.8944 476.43 Q30.6797 474.329 29.0883 471.497 Q27.4968 468.632 27.4968 464.908 Q27.4968 458.765 31.3163 455.614 Q35.1038 452.463 42.4881 452.463 Z" fill="#000000" fill-rule="nonzero" fill-opacity="1" /><path clip-path="url(#clip970)" d="M44.7161 410.29 L47.5806 410.29 L47.5806 437.217 Q53.6281 436.835 56.8109 433.589 Q59.9619 430.311 59.9619 424.486 Q59.9619 421.112 59.1344 417.961 Q58.3069 414.778 56.6518 411.659 L62.1899 411.659 Q63.5267 414.81 64.227 418.12 Q64.9272 421.43 64.9272 424.836 Q64.9272 433.366 59.9619 438.363 Q54.9967 443.328 46.5303 443.328 Q37.7774 443.328 32.6531 438.618 Q27.4968 433.875 27.4968 425.855 Q27.4968 418.661 32.1438 414.492 Q36.7589 410.29 44.7161 410.29 M42.9973 416.147 Q38.1912 416.21 35.3266 418.852 Q32.4621 421.462 32.4621 425.791 Q32.4621 430.692 35.2312 433.653 Q38.0002 436.581 43.0292 437.026 L42.9973 416.147 Z" fill="#000000" fill-rule="nonzero" fill-opacity="1" /><path clip-path="url(#clip970)" d="M42.4881 371.046 L64.0042 371.046 L64.0042 376.902 L42.679 376.902 Q37.6183 376.902 35.1038 378.876 Q32.5894 380.849 32.5894 384.796 Q32.5894 389.538 35.6131 392.275 Q38.6368 395.013 43.8567 395.013 L64.0042 395.013 L64.0042 400.901 L28.3562 400.901 L28.3562 395.013 L33.8944 395.013 Q30.6797 392.912 29.0883 390.079 Q27.4968 387.215 27.4968 383.491 Q27.4968 377.348 31.3163 374.197 Q35.1038 371.046 42.4881 371.046 Z" fill="#000000" fill-rule="nonzero" fill-opacity="1" /><path clip-path="url(#clip970)" d="M18.2347 353.572 L28.3562 353.572 L28.3562 341.509 L32.9077 341.509 L32.9077 353.572 L52.2594 353.572 Q56.6199 353.572 57.8613 352.394 Q59.1026 351.185 59.1026 347.525 L59.1026 341.509 L64.0042 341.509 L64.0042 347.525 Q64.0042 354.304 61.4897 356.882 Q58.9434 359.46 52.2594 359.46 L32.9077 359.46 L32.9077 363.757 L28.3562 363.757 L28.3562 359.46 L18.2347 359.46 L18.2347 353.572 Z" fill="#000000" fill-rule="nonzero" fill-opacity="1" /><polyline clip-path="url(#clip971)" style="stroke:#009af9; stroke-linecap:round; stroke-linejoin:round; stroke-width:8; stroke-opacity:1; fill:none" points="279.759,1219.82 313.871,1219.82 347.983,1219.82 382.095,1219.82 416.207,1219.83 450.32,1219.85 484.432,1219.88 518.544,1219.91 552.656,1219.95 586.768,1220 620.881,1220.06 654.993,1220.12 689.105,1220.19 723.217,1220.26 757.329,1220.35 791.441,1220.44 825.554,1220.54 859.666,1220.65 893.778,1220.77 927.89,1220.89 962.002,1221.03 996.115,1221.17 1030.23,1221.32 1064.34,1221.49 1098.45,1221.66 1132.56,1221.84 1166.68,1222.03 1200.79,1222.23 1234.9,1222.45 1269.01,1222.67 1303.12,1222.91 1337.24,1223.16 1371.35,1223.42 1405.46,1223.7 1439.57,1223.99 1473.69,1224.29 1507.8,1224.61 1541.91,1224.95 1576.02,1225.29 1610.13,1225.66 1644.25,1226.04 1678.36,1226.44 1712.47,1226.86 1746.58,1227.3 1780.69,1227.75 1814.81,1228.23 1848.92,1228.72 1883.03,1229.24 1917.14,1229.77 1951.26,1230.33 1985.37,1230.91 2019.48,1231.52 2053.59,1232.14 2087.7,1232.79 2121.82,1233.46 2155.93,1234.16 2190.04,1234.88 2224.15,1235.62 2258.27,1236.38 2292.38,1237.17 "/>
<polyline clip-path="url(#clip971)" style="stroke:#e26f46; stroke-linecap:round; stroke-linejoin:round; stroke-width:8; stroke-opacity:1; fill:none" points="279.759,1384.24 313.871,1372.18 347.983,1360.12 382.095,1348.05 416.207,1335.96 450.32,1323.83 484.432,1311.65 518.544,1299.41 552.656,1287.1 586.768,1274.7 620.881,1262.2 654.993,1249.58 689.105,1236.84 723.217,1223.95 757.329,1210.91 791.441,1197.69 825.554,1184.29 859.666,1170.68 893.778,1156.85 927.89,1142.79 962.002,1128.47 996.115,1113.88 1030.23,1098.99 1064.34,1083.8 1098.45,1068.27 1132.56,1052.39 1166.68,1036.13 1200.79,1019.48 1234.9,1002.4 1269.01,984.873 1303.12,966.873 1337.24,948.372 1371.35,929.341 1405.46,909.752 1439.57,889.572 1473.69,868.77 1507.8,847.313 1541.91,825.167 1576.02,802.296 1610.13,778.664 1644.25,754.233 1678.36,728.965 1712.47,702.819 1746.58,675.756 1780.69,647.736 1814.81,618.716 1848.92,588.656 1883.03,557.514 1917.14,525.25 1951.26,491.824 1985.37,457.197 2019.48,421.331 2053.59,384.191 2087.7,345.744 2121.82,305.96 2155.93,264.812 2190.04,222.277 2224.15,178.337 2258.27,132.976 2292.38,86.1857 "/>
<polyline clip-path="url(#clip971)" style="stroke:#3da44d; stroke-linecap:round; stroke-linejoin:round; stroke-width:4; stroke-opacity:1; fill:none" stroke-dasharray="2, 4" points="1702.82,2799.12 1702.82,-1328.69 "/>
<path clip-path="url(#clip970)" d="M290.493 858.836 L893.111 858.836 L893.111 651.476 L290.493 651.476  Z" fill="#ffffff" fill-rule="evenodd" fill-opacity="1"/>
<polyline clip-path="url(#clip970)" style="stroke:#000000; stroke-linecap:round; stroke-linejoin:round; stroke-width:4; stroke-opacity:1; fill:none" points="290.493,858.836 893.111,858.836 893.111,651.476 290.493,651.476 290.493,858.836 "/>
<polyline clip-path="url(#clip970)" style="stroke:#009af9; stroke-linecap:round; stroke-linejoin:round; stroke-width:8; stroke-opacity:1; fill:none" points="314.197,703.316 456.422,703.316 "/>
<path clip-path="url(#clip970)" d="M480.126 686.036 L484.802 686.036 L484.802 700.643 L500.311 686.036 L506.33 686.036 L489.177 702.148 L507.556 720.596 L501.399 720.596 L484.802 703.953 L484.802 720.596 L480.126 720.596 L480.126 686.036 Z" fill="#000000" fill-rule="nonzero" fill-opacity="1" /><path clip-path="url(#clip970)" d="M530.728 728.467 L530.728 731.777 L506.098 731.777 L506.098 728.467 L530.728 728.467 Z" fill="#000000" fill-rule="nonzero" fill-opacity="1" /><path clip-path="url(#clip970)" d="M534.292 730.458 L534.292 694.671 L538.552 694.671 L538.552 710.782 Q538.552 714.138 540.149 715.851 Q541.746 717.564 544.871 717.564 Q548.297 717.564 550.01 715.62 Q551.746 713.675 551.746 709.786 L551.746 694.671 L556.005 694.671 L556.005 714.624 Q556.005 716.013 556.399 716.684 Q556.815 717.333 557.672 717.333 Q557.88 717.333 558.251 717.217 Q558.621 717.078 559.269 716.8 L559.269 720.226 Q558.32 720.759 557.464 721.013 Q556.63 721.268 555.82 721.268 Q554.223 721.268 553.274 720.365 Q552.325 719.462 551.978 717.61 Q550.82 719.439 549.13 720.365 Q547.464 721.268 545.195 721.268 Q542.834 721.268 541.167 720.365 Q539.524 719.462 538.552 717.657 L538.552 730.458 L534.292 730.458 Z" fill="#000000" fill-rule="nonzero" fill-opacity="1" /><path clip-path="url(#clip970)" d="M590.195 684.624 Q587.093 689.949 585.588 695.157 Q584.084 700.365 584.084 705.712 Q584.084 711.06 585.588 716.314 Q587.116 721.546 590.195 726.846 L586.491 726.846 Q583.019 721.407 581.283 716.152 Q579.57 710.897 579.57 705.712 Q579.57 700.55 581.283 695.319 Q582.996 690.087 586.491 684.624 L590.195 684.624 Z" fill="#000000" fill-rule="nonzero" fill-opacity="1" /><path clip-path="url(#clip970)" d="M602.579 716.708 L602.579 730.458 L598.297 730.458 L598.297 694.671 L602.579 694.671 L602.579 698.606 Q603.922 696.291 605.959 695.18 Q608.019 694.046 610.866 694.046 Q615.588 694.046 618.528 697.796 Q621.491 701.546 621.491 707.657 Q621.491 713.768 618.528 717.518 Q615.588 721.268 610.866 721.268 Q608.019 721.268 605.959 720.157 Q603.922 719.022 602.579 716.708 M617.07 707.657 Q617.07 702.958 615.125 700.296 Q613.204 697.611 609.824 697.611 Q606.445 697.611 604.5 700.296 Q602.579 702.958 602.579 707.657 Q602.579 712.356 604.5 715.041 Q606.445 717.703 609.824 717.703 Q613.204 717.703 615.125 715.041 Q617.07 712.356 617.07 707.657 Z" fill="#000000" fill-rule="nonzero" fill-opacity="1" /><path clip-path="url(#clip970)" d="M650.727 706.569 L650.727 708.652 L631.144 708.652 Q631.422 713.05 633.783 715.365 Q636.167 717.657 640.403 717.657 Q642.857 717.657 645.148 717.055 Q647.463 716.453 649.732 715.249 L649.732 719.277 Q647.44 720.249 645.033 720.759 Q642.625 721.268 640.148 721.268 Q633.945 721.268 630.31 717.657 Q626.699 714.046 626.699 707.888 Q626.699 701.523 630.125 697.796 Q633.574 694.046 639.408 694.046 Q644.639 694.046 647.671 697.425 Q650.727 700.782 650.727 706.569 M646.468 705.319 Q646.421 701.823 644.5 699.74 Q642.602 697.657 639.454 697.657 Q635.889 697.657 633.736 699.671 Q631.607 701.685 631.283 705.342 L646.468 705.319 Z" fill="#000000" fill-rule="nonzero" fill-opacity="1" /><path clip-path="url(#clip970)" d="M672.741 698.652 Q672.023 698.236 671.167 698.05 Q670.333 697.842 669.315 697.842 Q665.704 697.842 663.759 700.203 Q661.838 702.541 661.838 706.939 L661.838 720.596 L657.556 720.596 L657.556 694.671 L661.838 694.671 L661.838 698.698 Q663.181 696.337 665.333 695.203 Q667.486 694.046 670.565 694.046 Q671.005 694.046 671.537 694.115 Q672.069 694.161 672.718 694.277 L672.741 698.652 Z" fill="#000000" fill-rule="nonzero" fill-opacity="1" /><path clip-path="url(#clip970)" d="M696.56 699.648 Q698.157 696.777 700.38 695.411 Q702.602 694.046 705.611 694.046 Q709.662 694.046 711.861 696.893 Q714.06 699.717 714.06 704.948 L714.06 720.596 L709.778 720.596 L709.778 705.087 Q709.778 701.36 708.458 699.555 Q707.139 697.749 704.43 697.749 Q701.12 697.749 699.199 699.948 Q697.278 702.148 697.278 705.944 L697.278 720.596 L692.995 720.596 L692.995 705.087 Q692.995 701.337 691.676 699.555 Q690.356 697.749 687.602 697.749 Q684.338 697.749 682.417 699.972 Q680.495 702.171 680.495 705.944 L680.495 720.596 L676.213 720.596 L676.213 694.671 L680.495 694.671 L680.495 698.698 Q681.954 696.314 683.991 695.18 Q686.028 694.046 688.829 694.046 Q691.653 694.046 693.62 695.481 Q695.611 696.916 696.56 699.648 Z" fill="#000000" fill-rule="nonzero" fill-opacity="1" /><path clip-path="url(#clip970)" d="M734.338 707.564 Q729.176 707.564 727.185 708.745 Q725.194 709.925 725.194 712.772 Q725.194 715.041 726.676 716.384 Q728.18 717.703 730.75 717.703 Q734.291 717.703 736.421 715.203 Q738.574 712.68 738.574 708.513 L738.574 707.564 L734.338 707.564 M742.833 705.805 L742.833 720.596 L738.574 720.596 L738.574 716.661 Q737.115 719.022 734.94 720.157 Q732.764 721.268 729.615 721.268 Q725.634 721.268 723.273 719.046 Q720.935 716.8 720.935 713.05 Q720.935 708.675 723.852 706.453 Q726.791 704.231 732.602 704.231 L738.574 704.231 L738.574 703.814 Q738.574 700.874 736.629 699.277 Q734.708 697.657 731.213 697.657 Q728.99 697.657 726.884 698.189 Q724.778 698.722 722.833 699.786 L722.833 695.851 Q725.171 694.948 727.37 694.509 Q729.569 694.046 731.653 694.046 Q737.277 694.046 740.055 696.962 Q742.833 699.879 742.833 705.805 Z" fill="#000000" fill-rule="nonzero" fill-opacity="1" /><path clip-path="url(#clip970)" d="M773.157 704.948 L773.157 720.596 L768.898 720.596 L768.898 705.087 Q768.898 701.407 767.463 699.578 Q766.027 697.749 763.157 697.749 Q759.708 697.749 757.717 699.948 Q755.726 702.148 755.726 705.944 L755.726 720.596 L751.444 720.596 L751.444 694.671 L755.726 694.671 L755.726 698.698 Q757.254 696.361 759.314 695.203 Q761.398 694.046 764.106 694.046 Q768.574 694.046 770.865 696.823 Q773.157 699.578 773.157 704.948 Z" fill="#000000" fill-rule="nonzero" fill-opacity="1" /><path clip-path="url(#clip970)" d="M803.828 706.569 L803.828 708.652 L784.245 708.652 Q784.523 713.05 786.884 715.365 Q789.268 717.657 793.504 717.657 Q795.958 717.657 798.249 717.055 Q800.564 716.453 802.833 715.249 L802.833 719.277 Q800.541 720.249 798.134 720.759 Q795.726 721.268 793.249 721.268 Q787.046 721.268 783.411 717.657 Q779.8 714.046 779.8 707.888 Q779.8 701.523 783.226 697.796 Q786.675 694.046 792.509 694.046 Q797.74 694.046 800.773 697.425 Q803.828 700.782 803.828 706.569 M799.569 705.319 Q799.523 701.823 797.601 699.74 Q795.703 697.657 792.555 697.657 Q788.99 697.657 786.837 699.671 Q784.708 701.685 784.384 705.342 L799.569 705.319 Z" fill="#000000" fill-rule="nonzero" fill-opacity="1" /><path clip-path="url(#clip970)" d="M832.37 704.948 L832.37 720.596 L828.11 720.596 L828.11 705.087 Q828.11 701.407 826.675 699.578 Q825.24 697.749 822.37 697.749 Q818.921 697.749 816.93 699.948 Q814.939 702.148 814.939 705.944 L814.939 720.596 L810.657 720.596 L810.657 694.671 L814.939 694.671 L814.939 698.698 Q816.467 696.361 818.527 695.203 Q820.61 694.046 823.319 694.046 Q827.786 694.046 830.078 696.823 Q832.37 699.578 832.37 704.948 Z" fill="#000000" fill-rule="nonzero" fill-opacity="1" /><path clip-path="url(#clip970)" d="M845.078 687.31 L845.078 694.671 L853.851 694.671 L853.851 697.981 L845.078 697.981 L845.078 712.055 Q845.078 715.226 845.934 716.129 Q846.814 717.032 849.476 717.032 L853.851 717.032 L853.851 720.596 L849.476 720.596 Q844.545 720.596 842.67 718.768 Q840.795 716.916 840.795 712.055 L840.795 697.981 L837.67 697.981 L837.67 694.671 L840.795 694.671 L840.795 687.31 L845.078 687.31 Z" fill="#000000" fill-rule="nonzero" fill-opacity="1" /><path clip-path="url(#clip970)" d="M858.781 684.624 L862.485 684.624 Q865.957 690.087 867.67 695.319 Q869.406 700.55 869.406 705.712 Q869.406 710.897 867.67 716.152 Q865.957 721.407 862.485 726.846 L858.781 726.846 Q861.86 721.546 863.365 716.314 Q864.893 711.06 864.893 705.712 Q864.893 700.365 863.365 695.157 Q861.86 689.949 858.781 684.624 Z" fill="#000000" fill-rule="nonzero" fill-opacity="1" /><polyline clip-path="url(#clip970)" style="stroke:#e26f46; stroke-linecap:round; stroke-linejoin:round; stroke-width:8; stroke-opacity:1; fill:none" points="314.197,755.156 456.422,755.156 "/>
<path clip-path="url(#clip970)" d="M480.126 737.876 L484.802 737.876 L484.802 752.483 L500.311 737.876 L506.33 737.876 L489.177 753.988 L507.556 772.436 L501.399 772.436 L484.802 755.793 L484.802 772.436 L480.126 772.436 L480.126 737.876 Z" fill="#000000" fill-rule="nonzero" fill-opacity="1" /><path clip-path="url(#clip970)" d="M530.728 780.307 L530.728 783.617 L506.098 783.617 L506.098 780.307 L530.728 780.307 Z" fill="#000000" fill-rule="nonzero" fill-opacity="1" /><path clip-path="url(#clip970)" d="M539.408 758.455 Q536.816 757.9 535.427 756.395 Q534.038 754.913 534.038 752.761 Q534.038 749.497 536.677 747.668 Q539.292 745.863 543.829 745.863 Q545.589 745.863 547.556 746.14 Q549.524 746.418 551.792 746.974 L551.792 750.839 Q549.547 750.168 547.695 749.867 Q545.82 749.566 544.177 749.566 Q541.422 749.566 539.825 750.631 Q538.204 751.696 538.204 753.177 Q538.204 754.798 539.779 755.839 Q541.329 756.858 544.015 756.858 L547.603 756.858 L547.603 760.376 L544.177 760.376 Q541.005 760.376 539.339 761.557 Q537.533 762.853 537.533 764.89 Q537.533 766.974 539.478 768.27 Q541.445 769.566 544.941 769.566 Q547.093 769.566 549.061 769.149 Q551.028 768.71 552.672 767.853 L552.672 771.811 Q550.589 772.46 548.644 772.784 Q546.677 773.108 544.825 773.108 Q539.316 773.108 536.329 771.001 Q533.343 768.895 533.343 764.89 Q533.343 762.39 534.941 760.7 Q536.538 759.011 539.408 758.455 Z" fill="#000000" fill-rule="nonzero" fill-opacity="1" /><path clip-path="url(#clip970)" d="M585.658 736.464 Q582.556 741.789 581.051 746.997 Q579.547 752.205 579.547 757.552 Q579.547 762.9 581.051 768.154 Q582.579 773.386 585.658 778.686 L581.954 778.686 Q578.482 773.247 576.746 767.992 Q575.033 762.737 575.033 757.552 Q575.033 752.39 576.746 747.159 Q578.459 741.927 581.954 736.464 L585.658 736.464 Z" fill="#000000" fill-rule="nonzero" fill-opacity="1" /><path clip-path="url(#clip970)" d="M598.135 739.15 L598.135 746.511 L606.908 746.511 L606.908 749.821 L598.135 749.821 L598.135 763.895 Q598.135 767.066 598.991 767.969 Q599.871 768.872 602.533 768.872 L606.908 768.872 L606.908 772.436 L602.533 772.436 Q597.602 772.436 595.727 770.608 Q593.852 768.756 593.852 763.895 L593.852 749.821 L590.727 749.821 L590.727 746.511 L593.852 746.511 L593.852 739.15 L598.135 739.15 Z" fill="#000000" fill-rule="nonzero" fill-opacity="1" /><path clip-path="url(#clip970)" d="M627.533 750.492 Q626.815 750.076 625.959 749.89 Q625.125 749.682 624.107 749.682 Q620.496 749.682 618.551 752.043 Q616.63 754.381 616.63 758.779 L616.63 772.436 L612.348 772.436 L612.348 746.511 L616.63 746.511 L616.63 750.538 Q617.973 748.177 620.125 747.043 Q622.278 745.886 625.357 745.886 Q625.797 745.886 626.329 745.955 Q626.861 746.001 627.51 746.117 L627.533 750.492 Z" fill="#000000" fill-rule="nonzero" fill-opacity="1" /><path clip-path="url(#clip970)" d="M643.783 759.404 Q638.621 759.404 636.63 760.585 Q634.639 761.765 634.639 764.612 Q634.639 766.881 636.121 768.224 Q637.625 769.543 640.195 769.543 Q643.736 769.543 645.866 767.043 Q648.019 764.52 648.019 760.353 L648.019 759.404 L643.783 759.404 M652.278 757.645 L652.278 772.436 L648.019 772.436 L648.019 768.501 Q646.56 770.862 644.384 771.997 Q642.209 773.108 639.06 773.108 Q635.079 773.108 632.718 770.886 Q630.38 768.64 630.38 764.89 Q630.38 760.515 633.297 758.293 Q636.236 756.071 642.047 756.071 L648.019 756.071 L648.019 755.654 Q648.019 752.714 646.074 751.117 Q644.153 749.497 640.658 749.497 Q638.435 749.497 636.329 750.029 Q634.222 750.562 632.278 751.626 L632.278 747.691 Q634.616 746.788 636.815 746.349 Q639.014 745.886 641.097 745.886 Q646.722 745.886 649.5 748.802 Q652.278 751.719 652.278 757.645 Z" fill="#000000" fill-rule="nonzero" fill-opacity="1" /><path clip-path="url(#clip970)" d="M682.602 756.788 L682.602 772.436 L678.343 772.436 L678.343 756.927 Q678.343 753.247 676.907 751.418 Q675.472 749.589 672.602 749.589 Q669.153 749.589 667.162 751.788 Q665.171 753.988 665.171 757.784 L665.171 772.436 L660.889 772.436 L660.889 746.511 L665.171 746.511 L665.171 750.538 Q666.699 748.201 668.759 747.043 Q670.843 745.886 673.551 745.886 Q678.019 745.886 680.31 748.663 Q682.602 751.418 682.602 756.788 Z" fill="#000000" fill-rule="nonzero" fill-opacity="1" /><path clip-path="url(#clip970)" d="M707.625 747.275 L707.625 751.302 Q705.819 750.376 703.875 749.913 Q701.93 749.451 699.847 749.451 Q696.676 749.451 695.079 750.423 Q693.505 751.395 693.505 753.339 Q693.505 754.821 694.639 755.677 Q695.773 756.511 699.199 757.275 L700.657 757.599 Q705.194 758.571 707.092 760.353 Q709.014 762.112 709.014 765.284 Q709.014 768.895 706.143 771.001 Q703.296 773.108 698.296 773.108 Q696.213 773.108 693.944 772.691 Q691.699 772.298 689.199 771.487 L689.199 767.089 Q691.56 768.316 693.852 768.941 Q696.143 769.543 698.389 769.543 Q701.398 769.543 703.018 768.524 Q704.639 767.483 704.639 765.608 Q704.639 763.872 703.458 762.946 Q702.301 762.02 698.343 761.163 L696.861 760.816 Q692.903 759.983 691.143 758.27 Q689.384 756.534 689.384 753.525 Q689.384 749.867 691.977 747.876 Q694.569 745.886 699.338 745.886 Q701.699 745.886 703.782 746.233 Q705.866 746.58 707.625 747.275 Z" fill="#000000" fill-rule="nonzero" fill-opacity="1" /><path clip-path="url(#clip970)" d="M715.796 746.511 L720.055 746.511 L720.055 772.436 L715.796 772.436 L715.796 746.511 M715.796 736.418 L720.055 736.418 L720.055 741.812 L715.796 741.812 L715.796 736.418 Z" fill="#000000" fill-rule="nonzero" fill-opacity="1" /><path clip-path="url(#clip970)" d="M733.18 739.15 L733.18 746.511 L741.953 746.511 L741.953 749.821 L733.18 749.821 L733.18 763.895 Q733.18 767.066 734.037 767.969 Q734.916 768.872 737.578 768.872 L741.953 768.872 L741.953 772.436 L737.578 772.436 Q732.648 772.436 730.773 770.608 Q728.898 768.756 728.898 763.895 L728.898 749.821 L725.773 749.821 L725.773 746.511 L728.898 746.511 L728.898 739.15 L733.18 739.15 Z" fill="#000000" fill-rule="nonzero" fill-opacity="1" /><path clip-path="url(#clip970)" d="M757.601 749.497 Q754.176 749.497 752.185 752.182 Q750.194 754.844 750.194 759.497 Q750.194 764.15 752.162 766.835 Q754.152 769.497 757.601 769.497 Q761.004 769.497 762.995 766.812 Q764.986 764.126 764.986 759.497 Q764.986 754.89 762.995 752.205 Q761.004 749.497 757.601 749.497 M757.601 745.886 Q763.157 745.886 766.328 749.497 Q769.5 753.108 769.5 759.497 Q769.5 765.862 766.328 769.497 Q763.157 773.108 757.601 773.108 Q752.023 773.108 748.851 769.497 Q745.703 765.862 745.703 759.497 Q745.703 753.108 748.851 749.497 Q752.023 745.886 757.601 745.886 Z" fill="#000000" fill-rule="nonzero" fill-opacity="1" /><path clip-path="url(#clip970)" d="M791.583 750.492 Q790.865 750.076 790.009 749.89 Q789.175 749.682 788.157 749.682 Q784.546 749.682 782.601 752.043 Q780.68 754.381 780.68 758.779 L780.68 772.436 L776.398 772.436 L776.398 746.511 L780.68 746.511 L780.68 750.538 Q782.023 748.177 784.175 747.043 Q786.328 745.886 789.407 745.886 Q789.847 745.886 790.379 745.955 Q790.911 746.001 791.56 746.117 L791.583 750.492 Z" fill="#000000" fill-rule="nonzero" fill-opacity="1" /><path clip-path="url(#clip970)" d="M806.837 774.844 Q805.032 779.473 803.319 780.886 Q801.606 782.298 798.735 782.298 L795.333 782.298 L795.333 778.733 L797.833 778.733 Q799.592 778.733 800.564 777.899 Q801.536 777.066 802.717 773.964 L803.481 772.02 L792.995 746.511 L797.509 746.511 L805.61 766.788 L813.712 746.511 L818.226 746.511 L806.837 774.844 Z" fill="#000000" fill-rule="nonzero" fill-opacity="1" /><path clip-path="url(#clip970)" d="M823.434 736.464 L827.138 736.464 Q830.61 741.927 832.323 747.159 Q834.059 752.39 834.059 757.552 Q834.059 762.737 832.323 767.992 Q830.61 773.247 827.138 778.686 L823.434 778.686 Q826.513 773.386 828.018 768.154 Q829.546 762.9 829.546 757.552 Q829.546 752.205 828.018 746.997 Q826.513 741.789 823.434 736.464 Z" fill="#000000" fill-rule="nonzero" fill-opacity="1" /><polyline clip-path="url(#clip970)" style="stroke:#3da44d; stroke-linecap:round; stroke-linejoin:round; stroke-width:4; stroke-opacity:1; fill:none" stroke-dasharray="2, 4" points="314.197,806.996 456.422,806.996 "/>
<path clip-path="url(#clip970)" d="M498.899 811.337 Q498.899 806.638 496.955 803.976 Q495.033 801.291 491.654 801.291 Q488.274 801.291 486.33 803.976 Q484.408 806.638 484.408 811.337 Q484.408 816.036 486.33 818.721 Q488.274 821.383 491.654 821.383 Q495.033 821.383 496.955 818.721 Q498.899 816.036 498.899 811.337 M484.408 802.286 Q485.751 799.971 487.788 798.86 Q489.848 797.726 492.695 797.726 Q497.418 797.726 500.357 801.476 Q503.32 805.226 503.32 811.337 Q503.32 817.448 500.357 821.198 Q497.418 824.948 492.695 824.948 Q489.848 824.948 487.788 823.837 Q485.751 822.702 484.408 820.388 L484.408 824.276 L480.126 824.276 L480.126 788.258 L484.408 788.258 L484.408 802.286 Z" fill="#000000" fill-rule="nonzero" fill-opacity="1" /><path clip-path="url(#clip970)" d="M522.163 811.244 Q517.001 811.244 515.01 812.425 Q513.019 813.605 513.019 816.452 Q513.019 818.721 514.501 820.064 Q516.006 821.383 518.575 821.383 Q522.117 821.383 524.246 818.883 Q526.399 816.36 526.399 812.193 L526.399 811.244 L522.163 811.244 M530.658 809.485 L530.658 824.276 L526.399 824.276 L526.399 820.341 Q524.941 822.702 522.765 823.837 Q520.589 824.948 517.441 824.948 Q513.459 824.948 511.098 822.726 Q508.76 820.48 508.76 816.73 Q508.76 812.355 511.677 810.133 Q514.617 807.911 520.427 807.911 L526.399 807.911 L526.399 807.494 Q526.399 804.554 524.455 802.957 Q522.533 801.337 519.038 801.337 Q516.816 801.337 514.709 801.869 Q512.603 802.402 510.658 803.466 L510.658 799.531 Q512.996 798.628 515.195 798.189 Q517.394 797.726 519.478 797.726 Q525.103 797.726 527.88 800.642 Q530.658 803.559 530.658 809.485 Z" fill="#000000" fill-rule="nonzero" fill-opacity="1" /><path clip-path="url(#clip970)" d="M555.959 799.115 L555.959 803.142 Q554.153 802.216 552.209 801.753 Q550.265 801.291 548.181 801.291 Q545.01 801.291 543.413 802.263 Q541.839 803.235 541.839 805.179 Q541.839 806.661 542.973 807.517 Q544.107 808.351 547.533 809.115 L548.991 809.439 Q553.528 810.411 555.427 812.193 Q557.348 813.952 557.348 817.124 Q557.348 820.735 554.478 822.841 Q551.63 824.948 546.63 824.948 Q544.547 824.948 542.279 824.531 Q540.033 824.138 537.533 823.327 L537.533 818.929 Q539.894 820.156 542.186 820.781 Q544.478 821.383 546.723 821.383 Q549.732 821.383 551.353 820.364 Q552.973 819.323 552.973 817.448 Q552.973 815.712 551.792 814.786 Q550.635 813.86 546.677 813.003 L545.195 812.656 Q541.237 811.823 539.478 810.11 Q537.718 808.374 537.718 805.365 Q537.718 801.707 540.311 799.716 Q542.904 797.726 547.672 797.726 Q550.033 797.726 552.116 798.073 Q554.2 798.42 555.959 799.115 Z" fill="#000000" fill-rule="nonzero" fill-opacity="1" /><path clip-path="url(#clip970)" d="M586.306 810.249 L586.306 812.332 L566.723 812.332 Q567.001 816.73 569.362 819.045 Q571.746 821.337 575.982 821.337 Q578.436 821.337 580.727 820.735 Q583.042 820.133 585.311 818.929 L585.311 822.957 Q583.019 823.929 580.612 824.439 Q578.204 824.948 575.727 824.948 Q569.524 824.948 565.89 821.337 Q562.278 817.726 562.278 811.568 Q562.278 805.203 565.704 801.476 Q569.153 797.726 574.987 797.726 Q580.218 797.726 583.251 801.105 Q586.306 804.462 586.306 810.249 M582.047 808.999 Q582.001 805.503 580.079 803.42 Q578.181 801.337 575.033 801.337 Q571.468 801.337 569.315 803.351 Q567.186 805.365 566.862 809.022 L582.047 808.999 Z" fill="#000000" fill-rule="nonzero" fill-opacity="1" /><path clip-path="url(#clip970)" d="M593.297 788.258 L597.556 788.258 L597.556 824.276 L593.297 824.276 L593.297 788.258 Z" fill="#000000" fill-rule="nonzero" fill-opacity="1" /><path clip-path="url(#clip970)" d="M606.468 798.351 L610.727 798.351 L610.727 824.276 L606.468 824.276 L606.468 798.351 M606.468 788.258 L610.727 788.258 L610.727 793.652 L606.468 793.652 L606.468 788.258 Z" fill="#000000" fill-rule="nonzero" fill-opacity="1" /><path clip-path="url(#clip970)" d="M641.19 808.628 L641.19 824.276 L636.931 824.276 L636.931 808.767 Q636.931 805.087 635.496 803.258 Q634.06 801.429 631.19 801.429 Q627.741 801.429 625.75 803.628 Q623.76 805.828 623.76 809.624 L623.76 824.276 L619.477 824.276 L619.477 798.351 L623.76 798.351 L623.76 802.378 Q625.287 800.041 627.348 798.883 Q629.431 797.726 632.139 797.726 Q636.607 797.726 638.898 800.503 Q641.19 803.258 641.19 808.628 Z" fill="#000000" fill-rule="nonzero" fill-opacity="1" /><path clip-path="url(#clip970)" d="M671.861 810.249 L671.861 812.332 L652.278 812.332 Q652.556 816.73 654.917 819.045 Q657.301 821.337 661.537 821.337 Q663.991 821.337 666.282 820.735 Q668.597 820.133 670.866 818.929 L670.866 822.957 Q668.574 823.929 666.167 824.439 Q663.759 824.948 661.283 824.948 Q655.079 824.948 651.445 821.337 Q647.834 817.726 647.834 811.568 Q647.834 805.203 651.259 801.476 Q654.708 797.726 660.542 797.726 Q665.773 797.726 668.806 801.105 Q671.861 804.462 671.861 810.249 M667.602 808.999 Q667.556 805.503 665.634 803.42 Q663.736 801.337 660.588 801.337 Q657.023 801.337 654.871 803.351 Q652.741 805.365 652.417 809.022 L667.602 808.999 Z" fill="#000000" fill-rule="nonzero" fill-opacity="1" /><path clip-path="url(#clip970)" d="M695.843 802.98 Q697.255 800.619 700.75 798.536 Q702.116 797.726 706.329 797.726 Q711.051 797.726 713.991 801.476 Q716.954 805.226 716.954 811.337 Q716.954 817.448 713.991 821.198 Q711.051 824.948 706.329 824.948 Q703.481 824.948 701.421 823.837 Q699.384 822.702 698.042 820.388 L698.042 834.138 L693.759 834.138 L693.759 811.568 Q693.759 806.221 695.843 802.98 M712.532 811.337 Q712.532 806.638 710.588 803.976 Q708.667 801.291 705.287 801.291 Q701.907 801.291 699.963 803.976 Q698.042 806.638 698.042 811.337 Q698.042 816.036 699.963 818.721 Q701.907 821.383 705.287 821.383 Q708.667 821.383 710.588 818.721 Q712.532 816.036 712.532 811.337 Z" fill="#000000" fill-rule="nonzero" fill-opacity="1" /><path clip-path="url(#clip970)" d="M739.639 802.749 L769.314 802.749 L769.314 806.638 L739.639 806.638 L739.639 802.749 M739.639 812.193 L769.314 812.193 L769.314 816.128 L739.639 816.128 L739.639 812.193 Z" fill="#000000" fill-rule="nonzero" fill-opacity="1" /><path clip-path="url(#clip970)" d="M804.476 792.795 Q800.865 792.795 799.036 796.36 Q797.231 799.902 797.231 807.031 Q797.231 814.138 799.036 817.702 Q800.865 821.244 804.476 821.244 Q808.11 821.244 809.916 817.702 Q811.745 814.138 811.745 807.031 Q811.745 799.902 809.916 796.36 Q808.11 792.795 804.476 792.795 M804.476 789.091 Q810.286 789.091 813.342 793.698 Q816.421 798.281 816.421 807.031 Q816.421 815.758 813.342 820.364 Q810.286 824.948 804.476 824.948 Q798.666 824.948 795.587 820.364 Q792.532 815.758 792.532 807.031 Q792.532 798.281 795.587 793.698 Q798.666 789.091 804.476 789.091 Z" fill="#000000" fill-rule="nonzero" fill-opacity="1" /><path clip-path="url(#clip970)" d="M824.638 818.397 L829.522 818.397 L829.522 824.276 L824.638 824.276 L824.638 818.397 Z" fill="#000000" fill-rule="nonzero" fill-opacity="1" /><path clip-path="url(#clip970)" d="M838.527 789.716 L860.749 789.716 L860.749 791.707 L848.203 824.276 L843.319 824.276 L855.124 793.652 L838.527 793.652 L838.527 789.716 Z" fill="#000000" fill-rule="nonzero" fill-opacity="1" /></svg>
